<svg xmlns="http://www.w3.org/2000/svg" width="16.472" height="18.158" viewBox="0 0 16.472 18.158">
  <g id="calendar" transform="translate(-2.35 -1.35)">
    <path id="Path_47459" data-name="Path 47459" d="M8,2V4.529" transform="translate(-0.785)" fill="none" stroke="#fff" stroke-linecap="round" stroke-linejoin="round" stroke-miterlimit="10" stroke-width="1.3"/>
    <path id="Path_47460" data-name="Path 47460" d="M16,2V4.529" transform="translate(-2.042)" fill="none" stroke="#fff" stroke-linecap="round" stroke-linejoin="round" stroke-miterlimit="10" stroke-width="1.3"/>
    <path id="Path_47461" data-name="Path 47461" d="M3.5,9.09H17.829" transform="translate(-0.079 -1.114)" fill="none" stroke="#fff" stroke-linecap="round" stroke-linejoin="round" stroke-miterlimit="10" stroke-width="1.3"/>
    <path id="Path_47462" data-name="Path 47462" d="M18.172,7.715v7.165c0,2.529-1.264,4.215-4.215,4.215H7.215C4.264,19.094,3,17.408,3,14.879V7.715C3,5.186,4.264,3.5,7.215,3.5h6.743C16.908,3.5,18.172,5.186,18.172,7.715Z" transform="translate(0 -0.236)" fill="none" stroke="#fff" stroke-linecap="round" stroke-linejoin="round" stroke-miterlimit="10" stroke-width="1.3"/>
    <path id="Path_47463" data-name="Path 47463" d="M15.695,13.7H15.7" transform="translate(-1.994 -1.838)" fill="none" stroke="#fff" stroke-linecap="round" stroke-linejoin="round" stroke-width="1.3"/>
    <path id="Path_47464" data-name="Path 47464" d="M15.695,16.7H15.7" transform="translate(-1.994 -2.309)" fill="none" stroke="#fff" stroke-linecap="round" stroke-linejoin="round" stroke-width="1.3"/>
    <path id="Path_47465" data-name="Path 47465" d="M12,13.7H12" transform="translate(-1.413 -1.838)" fill="none" stroke="#fff" stroke-linecap="round" stroke-linejoin="round" stroke-width="1.3"/>
    <path id="Path_47466" data-name="Path 47466" d="M12,16.7H12" transform="translate(-1.413 -2.309)" fill="none" stroke="#fff" stroke-linecap="round" stroke-linejoin="round" stroke-width="1.3"/>
    <path id="Path_47467" data-name="Path 47467" d="M8.294,13.7H8.3" transform="translate(-0.832 -1.838)" fill="none" stroke="#fff" stroke-linecap="round" stroke-linejoin="round" stroke-width="1.3"/>
    <path id="Path_47468" data-name="Path 47468" d="M8.294,16.7H8.3" transform="translate(-0.832 -2.309)" fill="none" stroke="#fff" stroke-linecap="round" stroke-linejoin="round" stroke-width="1.3"/>
  </g>
</svg>
