<svg width="116" height="42" viewBox="0 0 116 42" fill="none" xmlns="http://www.w3.org/2000/svg">
<path fill-rule="evenodd" clip-rule="evenodd" d="M28.422 4.48932C33.5669 19.72 31.3567 29.3417 21.7915 33.3545C17.5856 36.4317 19.5574 37.9065 15.0575 41.4222C13.5308 42.6149 6.24185 20.1679 25.0577 7.11786C27.1171 5.58227 28.2386 4.70609 28.422 4.48932Z" fill="#02311B"/>
<path fill-rule="evenodd" clip-rule="evenodd" d="M32.4202 3.48045C31.8818 22.0369 26.3655 31.0662 15.8711 30.5685C10.5322 30.4973 12.1346 34.254 6.61871 35.732C4.74742 36.2334 5.81904 9.02954 28.2962 4.58547C30.7945 3.98627 32.1691 3.61793 32.4202 3.48045Z" fill="#08A25B"/>
<path d="M37.9373 0.0710947C32.0126 19.6605 23.4802 27.6946 12.3404 24.1733C6.62071 22.5756 7.26128 27.0293 0.904935 27.0293C-1.25147 27.0293 7.73789 -1.6085 33.185 0.0710947C36.0437 0.145806 37.6278 0.145806 37.9373 0.0710947Z" fill="#44E098"/>
<mask id="mask0_448_3549" style="mask-type:luminance" maskUnits="userSpaceOnUse" x="0" y="0" width="38" height="28">
<path d="M37.9373 0.0710947C32.0126 19.6605 23.4802 27.6946 12.3404 24.1733C6.62071 22.5756 7.26128 27.0293 0.904935 27.0293C-1.25147 27.0293 7.73789 -1.6085 33.185 0.0710947C36.0437 0.145806 37.6278 0.145806 37.9373 0.0710947Z" fill="white"/>
</mask>
<g mask="url(#mask0_448_3549)">
<g filter="url(#filter0_d_448_3549)">
<path d="M37.9373 0.0710947C32.0126 19.6605 23.4802 27.6946 12.3404 24.1733C6.62071 22.5756 7.26128 27.0293 0.904935 27.0293C-1.25147 27.0293 7.73789 -1.6085 33.185 0.0710947C36.0437 0.145806 37.6278 0.145806 37.9373 0.0710947Z" fill="black"/>
</g>
<path d="M37.9373 0.0710947C32.0126 19.6605 23.4802 27.6946 12.3404 24.1733C6.62071 22.5756 7.26128 27.0293 0.904935 27.0293C-1.25147 27.0293 7.73789 -1.6085 33.185 0.0710947C36.0437 0.145806 37.6278 0.145806 37.9373 0.0710947Z" fill="#44E098"/>
</g>
<path fill-rule="evenodd" clip-rule="evenodd" d="M57.86 25.9805L59.1118 29.9663C58.9471 30.098 57.2342 31.9098 52.919 31.9098C48.472 31.9098 44.3545 28.8793 44.3545 23.477C44.3545 18.0419 48.5379 15.0114 52.9849 15.0114C57.1353 15.0114 59.0129 16.7243 59.0129 16.7243L57.86 20.7101C57.3989 20.3477 55.9495 19.2607 53.6766 19.2607C51.4367 19.2607 49.6579 20.8089 49.6579 23.3782C49.6579 25.9476 51.272 27.5616 53.7425 27.5616C56.213 27.5616 57.86 25.9805 57.86 25.9805ZM66.688 10.6962C66.688 12.3432 65.4692 13.4302 63.6905 13.4302C61.9117 13.4302 60.6929 12.3432 60.6929 10.6962C60.6929 9.08213 61.9117 7.96216 63.6905 7.96216C65.4692 7.96216 66.688 9.08213 66.688 10.6962ZM66.3257 15.3078V31.5474H61.0552V15.3078H66.3257ZM87.8687 23.4441C87.8687 28.2204 84.904 31.9098 80.1936 31.9098C77.9866 31.9098 76.0431 31.1192 74.8243 29.4063H74.7913L74.8243 31.5474H69.8174V8.81861H75.0878V14.2867C75.0878 15.769 75.0219 17.2843 75.0219 17.2843H75.1207C75.8125 16.2961 77.4595 15.0114 80.2265 15.0114C84.904 15.0114 87.8687 18.6678 87.8687 23.4441ZM82.4994 23.3782C82.4994 20.8748 80.9841 19.1619 78.7112 19.1619C76.4384 19.1619 74.8902 20.8748 74.8902 23.3782C74.8902 25.8817 76.4384 27.5946 78.7112 27.5946C80.9841 27.5946 82.4994 25.8817 82.4994 23.3782ZM95.939 10.6962C95.939 12.3432 94.7202 13.4302 92.9415 13.4302C91.1627 13.4302 89.9439 12.3432 89.9439 10.6962C89.9439 9.08213 91.1627 7.96216 92.9415 7.96216C94.7202 7.96216 95.939 9.08213 95.939 10.6962ZM95.5767 15.3078V31.5474H90.3062V15.3078H95.5767ZM116 23.477C116 28.7146 112.146 31.9098 107.007 31.9098C101.868 31.9098 97.9813 28.7146 97.9813 23.477C97.9813 18.2395 101.868 15.0114 107.007 15.0114C112.146 15.0114 116 18.2395 116 23.477ZM110.696 23.3782C110.696 20.9736 109.313 19.1619 107.007 19.1619C104.668 19.1619 103.318 20.9736 103.318 23.3782C103.318 25.7829 104.668 27.5946 107.007 27.5946C109.313 27.5946 110.696 25.7829 110.696 23.3782Z" fill="black"/>
<defs>
<filter id="filter0_d_448_3549" x="-2.40332" y="0" width="43.3408" height="42.0293" filterUnits="userSpaceOnUse" color-interpolation-filters="sRGB">
<feFlood flood-opacity="0" result="BackgroundImageFix"/>
<feColorMatrix in="SourceAlpha" type="matrix" values="0 0 0 0 0 0 0 0 0 0 0 0 0 0 0 0 0 0 127 0" result="hardAlpha"/>
<feOffset dy="12"/>
<feGaussianBlur stdDeviation="1.5"/>
<feColorMatrix type="matrix" values="0 0 0 0 0 0 0 0 0 0 0 0 0 0 0 0 0 0 0.15 0"/>
<feBlend mode="normal" in2="BackgroundImageFix" result="effect1_dropShadow_448_3549"/>
<feBlend mode="normal" in="SourceGraphic" in2="effect1_dropShadow_448_3549" result="shape"/>
</filter>
</defs>
</svg>
