<svg width="115" height="32" viewBox="0 0 115 32" fill="none" xmlns="http://www.w3.org/2000/svg">
<rect width="115" height="32" fill="#666666"/>
<g clip-path="url(#clip0_434_1662)">
<rect width="1440" height="895" transform="translate(-1040 -513)" fill="white"/>
<rect x="-31" y="-50" width="177" height="124" rx="10" fill="#F2F7F3"/>
<g clip-path="url(#clip1_434_1662)">
<path d="M18.0165 3.70898C14.7863 3.70898 12.6328 5.99177 12.6328 9.55863C12.6328 13.0542 14.7145 15.4083 18.0165 15.4083C21.3186 15.4083 23.4003 13.1255 23.4003 9.55863C23.4003 6.06311 21.3186 3.70898 18.0165 3.70898ZM18.0165 13.1255C16.0784 13.1255 15.5041 11.3421 15.5041 9.62997C15.5041 7.84654 16.0784 6.06311 18.0165 6.06311C19.9547 6.06311 20.5289 7.84654 20.5289 9.62997C20.5289 11.3421 19.9547 13.1255 18.0165 13.1255Z" fill="#256CBA"/>
<path d="M26.9891 15.1229H30.2911L33.8802 4.06561H30.7936L28.6401 12.1267L26.4148 4.06561H23.3281L26.9891 15.1229Z" fill="#256CBA"/>
<path d="M6.53166 28.5343C10.3362 28.5343 11.7 26.0375 11.7 23.1127V15.1229H10.4079V22.8273C10.4079 26.1088 9.04406 27.3929 6.53166 27.3929C4.01925 27.3929 2.65537 26.1088 2.65537 22.8273V15.1229H1.36328V23.184C1.36328 26.0375 2.72716 28.5343 6.53166 28.5343Z" fill="#256CBA"/>
<path d="M25.5538 17.9764H24.2617V28.2489H25.5538V17.9764Z" fill="#256CBA"/>
<path d="M30.9378 28.2489H32.3735L36.3933 17.9764H34.9577L31.6556 26.9649L28.3536 17.9764H26.918L30.9378 28.2489Z" fill="#256CBA"/>
<path d="M63.3116 17.9764H62.0195V28.2489H63.3116V17.9764Z" fill="#256CBA"/>
<path d="M48.0935 15.1229V9.20194C48.0935 6.99049 48.7395 6.06311 50.3188 6.06311C51.6826 6.06311 52.1851 6.99049 52.1851 8.77392V15.1229H55.0564V8.27456C55.0564 5.56375 54.2668 3.70898 51.2519 3.70898C50.0316 3.70898 48.6677 4.35102 48.0217 5.56375V3.99433H45.2939V15.0516H48.0935" fill="#256CBA"/>
<path d="M59.7225 1.28351L56.8512 2.28223V4.06566H55.7744V6.0631H56.8512V11.7701C56.8512 14.4809 58.3586 15.1943 60.1532 15.1943C60.6557 15.1943 61.2299 15.1942 61.6606 15.1229V12.7688C61.3735 12.8401 61.1581 12.8401 60.9428 12.8401C60.0096 12.8401 59.7225 12.5548 59.7225 10.486V6.0631H61.6606V3.99432H59.7225V1.28351Z" fill="#256CBA"/>
<path d="M14.9298 28.2489V22.2566C15.0016 20.2592 16.1501 18.7611 18.16 18.7611C20.2417 18.7611 20.816 20.1165 20.816 21.8286V28.2489H22.1081V21.6146C22.1081 19.1891 21.0313 17.691 18.3036 17.691C16.8679 17.691 15.3605 18.5471 14.858 19.8312V18.0477H13.6377V28.2489H14.9298Z" fill="#256CBA"/>
<path d="M48.9552 28.2489V22.756C48.9552 20.6159 50.3908 18.9038 52.8315 18.9038V17.6197C50.8215 17.6197 49.5294 18.6897 48.8834 20.3305V17.905H47.6631V28.2489H48.9552Z" fill="#256CBA"/>
<path d="M54.6974 20.4019C54.6974 19.0464 55.8459 18.6898 57.2816 18.6898C58.0712 18.6898 59.0761 18.9038 59.794 19.3318V18.1191C58.8608 17.8337 57.7123 17.691 57.138 17.691C55.1998 17.691 53.4053 18.4044 53.4053 20.4019C53.4053 23.6834 59.0761 23.1127 59.0761 25.6095C59.0761 26.9649 57.6405 27.5356 56.3484 27.5356C55.2716 27.5356 54.1949 27.2502 53.4053 26.8935V28.1776C54.3385 28.5343 55.4152 28.6056 56.4202 28.6056C58.1429 28.6056 60.3682 27.8209 60.3682 25.6808C60.3682 22.0426 54.6974 22.3993 54.6974 20.4019Z" fill="#256CBA"/>
<path d="M75.0843 28.2489C74.0794 30.6031 72.9308 31.8871 71.4234 32.1011L70.9927 31.1024C72.5719 30.8884 73.2897 29.4617 73.7922 28.2489H73.0744L69.4135 18.9751H67.26V25.2528C67.26 26.3228 67.3318 27.2502 68.1931 27.2502H69.1981V28.2489H68.1931C66.5421 28.2489 66.0397 27.1789 66.0397 25.2528V18.9751H64.6758V17.9764H66.0397V15.6936H67.3318V17.9764H70.4902L74.1511 27.3929L77.9556 17.9764H79.3913L75.0843 28.2489Z" fill="#256CBA"/>
<path d="M76.3048 4.06566L73.6488 12.1981L70.9928 4.06566H68.624C66.6141 4.06566 65.8245 5.13572 65.5373 6.13444V4.06566H62.8096V15.1229H65.6809V10.1293C65.6809 7.70385 66.6859 6.56246 68.6958 6.49112L71.6389 15.0516H72.7874C72.3567 16.3356 72.0696 17.049 71.4235 17.477L72.3567 19.9025C73.7924 19.4745 74.8691 17.1917 75.5152 15.4796L79.3197 3.99432L76.3048 4.06566Z" fill="#256CBA"/>
<path d="M9.61794 10.5573C9.18725 11.9127 8.25407 12.7688 6.74662 12.7688C4.01887 12.7688 3.01391 10.4146 3.01391 7.98918C3.01391 5.49238 4.01887 3.13825 6.74662 3.13825C8.18228 3.13825 9.40259 4.13697 9.68973 5.42104L12.4175 4.49366C11.6279 1.92552 9.4026 0.498779 6.74662 0.498779C2.51143 0.498779 -0.000976562 3.78029 -0.000976562 7.98918C-0.000976562 12.0554 2.51143 15.3369 6.74662 15.3369C9.47438 15.3369 11.5561 13.8388 12.3457 11.4134L9.61794 10.5573Z" fill="#256CBA"/>
<path d="M41.2745 11.984C40.9156 12.5547 40.126 13.1254 39.121 13.1254C37.5418 13.1254 36.6804 12.2694 36.5368 10.3433H44.0741C44.2894 6.91911 42.5666 3.78027 39.0492 3.78027C35.8908 3.78027 33.7373 6.27707 33.7373 9.62992C33.7373 13.0541 35.7472 15.4796 39.0492 15.4796C41.0592 15.4796 42.5666 14.6949 43.4998 12.8401L41.2745 11.984ZM38.9775 5.99172C40.3413 5.99172 41.0592 6.77643 41.2745 8.34585H36.6086C36.6086 7.4898 37.1829 5.99172 38.9775 5.99172Z" fill="#256CBA"/>
<path d="M44.2887 25.5381C43.7862 26.6795 42.853 27.4642 41.2738 27.4642C38.8332 27.4642 37.9 25.2528 37.8282 23.398H45.7961C45.8679 20.5445 44.5758 17.6197 41.202 17.6197C37.9 17.6197 36.5361 20.3305 36.5361 23.0413C36.5361 25.9661 37.9 28.4629 41.202 28.4629C43.3555 28.4629 44.7194 27.5356 45.3654 25.8948L44.2887 25.5381ZM41.2738 18.7611C43.3555 18.7611 44.504 20.5445 44.5758 22.3993H37.8282C38.0436 20.5445 39.1921 18.7611 41.2738 18.7611Z" fill="#256CBA"/>
<path d="M111.406 16.9064C112.124 15.0516 112.052 14.8376 112.268 13.9102C114.493 12.7688 114.996 9.84398 114.996 9.55863C114.924 8.70258 114.996 9.20194 114.924 9.48729C114.708 10.3433 113.847 11.2707 113.129 11.8414L112.483 12.2694C112.555 11.4847 113.416 6.49113 111.406 2.63892C112.052 4.56503 111.191 6.70514 110.043 8.13188C110.043 7.84654 109.54 2.85294 107.315 0.356136L107.099 0.142123C107.458 0.641483 107.817 3.70898 106.094 6.6338C105.161 7.98921 103.941 9.13061 102.864 10.3433C101.859 11.6274 101.357 12.8401 101.859 14.9803C102.003 15.5509 102.29 16.4783 102.505 16.6923C102.649 16.7637 102.649 16.5497 102.577 16.407C102.29 15.8363 101.931 13.5535 104.515 10.6287C108.894 5.63508 107.674 1.28352 107.674 1.28352C108.392 1.99689 109.54 6.13444 109.612 8.41723C108.248 9.98665 103.367 13.4108 104.085 16.1216C104.156 16.4783 104.3 16.835 104.515 17.1204C103.869 18.1191 103.654 18.9038 104.013 19.9025C103.008 20.6872 102.003 21.7573 101.5 22.97C100.711 23.2554 99.9929 23.612 99.2751 24.2541C98.988 23.9687 98.7726 23.6834 98.4855 23.4694C98.7009 23.3267 100.639 22.328 101.429 21.5433C102.146 20.7586 102.649 19.6885 102.362 18.5471C101.859 16.4783 97.1934 13.7675 98.1984 12.6261C98.7008 11.9841 99.8494 11.6987 100.567 12.1268C100.639 12.1268 100.711 12.1981 100.711 12.2694C100.998 11.8414 101.357 10.7 99.5623 10.7C99.4187 10.3433 98.988 10.2007 98.5573 10.1293C97.4088 10.058 96.2602 10.5573 95.8295 11.5561C95.2553 12.8401 96.9063 15.5509 96.7627 17.3344C96.8345 18.8325 93.7478 19.8312 93.8196 17.4771C93.8196 16.407 96.332 13.5535 94.035 10.2007C93.1736 9.05927 92.1686 7.98921 91.3072 6.91915C88.1488 2.92427 90.0151 -0.000549316 90.0151 -0.000549316C86.9284 3.92299 87.6463 7.13316 87.5745 6.99049C87.3591 6.6338 85.6364 4.56503 86.4977 1.92555C86.4977 1.92555 84.6314 4.27968 84.9185 11.0567C84.5596 10.8427 82.6215 9.05927 82.6932 7.7752C82.6932 7.7752 82.2625 10.7 84.9903 12.7688C85.2057 13.8389 85.2774 14.7662 85.6363 15.8363C84.5596 15.4796 82.9086 14.1955 82.3343 13.0541C82.2625 12.8401 82.6932 15.6936 85.9953 17.4057C88.723 21.9713 91.7379 20.7586 92.3122 20.1879C93.1736 20.5445 94.4657 22.328 94.5374 22.6133C92.7429 22.0426 89.8715 21.4006 87.6463 21.3293C86.3542 20.0452 83.5546 17.4057 82.3343 18.6898C81.0422 20.3305 85.5646 22.2566 87.8616 22.4707C88.5077 23.1127 89.4408 24.0401 90.0151 24.8248C89.2973 24.9674 89.1537 25.0388 88.2205 25.3955C84.8467 22.6847 84.3443 24.5394 84.3443 24.5394C83.8418 26.7509 88.1488 26.6082 88.6512 26.5369C89.8715 27.8209 91.7379 27.8923 92.5993 27.6069C93.8914 28.8197 95.3271 28.7483 95.7578 28.677C97.1934 31.8872 99.634 30.3177 100.208 28.8197C101.429 29.1763 102.505 28.677 103.439 27.9636C104.085 28.1776 105.807 28.463 107.458 27.1789C111.622 27.9636 112.052 25.7522 111.909 25.3241C111.335 24.1114 108.75 25.4668 108.033 26.1088C107.315 25.8235 106.956 25.6095 106.238 25.3955C106.956 24.6108 107.817 23.8974 108.607 23.2554C117.077 22.6847 115.713 15.9076 108.966 22.114C107.028 22.114 104.013 22.328 101.931 22.8987C101.931 22.756 103.223 21.1152 104.3 20.6872C106.382 22.542 109.468 20.6872 110.832 18.4044C112.842 17.6197 114.278 16.1216 114.78 14.6236L114.852 14.3382C114.493 15.1229 112.986 16.5497 111.406 16.9064ZM82.6215 18.9038C83.4829 17.6911 86.2106 20.3305 87.072 21.3293C86.5695 21.2579 81.9036 20.1879 82.6215 18.9038ZM84.6314 24.6821C84.8467 23.3267 87.4309 24.9674 88.0052 25.5381C87.1438 25.8948 84.6314 25.8948 84.6314 24.6821ZM111.765 25.5381C111.909 26.0375 110.33 27.1789 108.32 26.2515C110.33 24.8248 111.694 24.8961 111.765 25.5381ZM114.134 19.9025C114.996 21.0439 111.191 22.0426 109.612 22.114C109.612 22.114 112.986 18.8325 114.134 19.9025ZM101.429 23.6834C101.357 24.1114 101.357 24.3254 101.357 25.0388C100.926 25.1815 100.495 25.2528 100.137 25.5381C99.993 25.1815 99.7776 24.8961 99.5623 24.6108C99.5623 24.6108 100.495 23.9687 101.429 23.6834ZM87.7181 9.48729C88.3641 10.5573 93.3171 14.2669 92.2404 16.407C91.0201 14.7662 88.077 13.1255 87.9334 12.9828C87.7898 11.9128 87.7181 10.7 87.7181 9.48729ZM91.8815 16.9064C91.7379 17.049 89.3691 18.1191 88.3641 14.9089C89.5126 15.4796 90.9483 16.1216 91.8815 16.9064ZM85.8517 4.06567C85.7799 4.77904 85.8517 6.41979 87.4309 9.05927C87.3591 10.272 87.4309 11.5561 87.6463 12.7688C86.7849 12.3408 86.067 11.8414 85.2774 11.4134C85.2056 10.3433 85.3492 5.20706 85.8517 4.06567ZM86.4977 17.6911C87.7181 18.1191 91.6661 19.9025 92.025 20.1165C91.5943 20.5445 89.0102 21.4719 86.4977 17.6911ZM92.5275 19.3318C91.0201 18.1904 88.5077 17.049 86.067 16.1216C85.8517 15.5509 85.421 13.4822 85.421 13.1255C86.1388 13.6962 87.1438 14.3382 88.077 14.7662C89.2255 18.4044 91.6661 17.4057 92.1686 17.1204C92.6711 17.6911 92.8146 18.4758 92.5275 19.3318ZM92.7429 19.5458C93.1736 18.4758 92.9582 17.7624 92.4557 16.7637C94.035 14.7662 92.025 11.9841 90.6612 10.5573C89.9433 9.77264 88.1488 7.91787 88.077 7.70386C87.7181 4.42235 89.3691 1.56887 89.4408 1.35485C88.6512 3.06695 88.2205 5.42107 92.7429 10.914C93.5325 11.9128 94.6092 12.9828 94.6092 14.4096C94.6092 15.6936 93.5325 16.7637 93.676 17.9051C93.8196 18.6898 94.2503 19.3318 95.0399 19.4745C95.9013 19.6172 96.6909 19.4032 97.1934 18.7611C98.988 16.407 96.1885 14.6949 96.1885 12.4121C96.1885 11.5561 96.6909 10.9854 97.4805 10.7C98.0548 10.5573 98.7726 10.4147 99.2033 10.8427C99.0598 10.8427 98.7009 10.914 98.3419 11.128C98.2702 11.0567 98.1984 10.9854 98.1266 10.9854C97.983 10.9854 97.8395 11.128 97.8395 11.2707V11.4134C97.9112 11.4847 97.983 11.6274 98.1266 11.5561C98.1984 11.5561 98.2702 11.4847 98.2702 11.4847C98.6291 11.2707 99.0598 11.1994 99.2751 11.1994C100.998 11.0567 100.495 11.9841 100.495 11.9841C100.495 11.9841 99.2033 11.2707 97.9112 12.4835C95.9731 14.5522 104.731 18.7611 98.1984 23.4694C97.9112 23.2554 97.0498 22.6847 96.5474 22.4707C96.4756 22.542 96.4756 22.6133 96.4038 22.6133C96.9781 22.8987 97.5523 23.2554 97.983 23.612C97.5523 23.8974 97.4088 24.1114 97.0498 24.3968C96.4756 23.8261 95.7577 23.3267 94.9681 22.97C94.6092 21.5433 93.7478 20.4019 92.7429 19.5458ZM95.0399 23.4694C95.686 23.612 96.332 24.1114 96.8345 24.4681C96.5474 24.8248 96.4038 25.0388 96.1885 25.3955C95.8295 25.1815 95.6142 25.0388 94.9681 24.8248C95.1117 24.3968 95.1117 23.8974 95.0399 23.4694ZM88.5077 22.6133C89.8715 22.756 93.8196 23.0413 94.681 23.398C94.8246 23.8261 94.8246 24.3254 94.7528 24.7534C93.3889 24.3968 91.7379 24.3968 90.4458 24.7534C90.5176 24.7534 89.1537 23.2554 88.5077 22.6133ZM89.1537 26.4655C89.2973 26.4655 90.5176 26.1802 91.0919 26.0375C91.5226 26.4655 92.0968 26.9649 92.5275 27.3929C92.5275 27.3929 90.4458 27.7496 89.1537 26.4655ZM91.379 25.9662C92.3839 25.6808 93.5325 25.2528 94.681 25.2528C94.681 25.3955 93.7478 26.8222 92.7429 27.3216L91.379 25.9662ZM95.8295 28.3916C94.8246 28.5343 93.676 28.0349 92.9582 27.4643C94.4657 26.6082 94.8964 25.3955 94.9681 25.2528C95.3988 25.3241 95.7577 25.4668 96.0449 25.6095C95.7577 26.3229 95.5424 27.4642 95.8295 28.3916ZM96.332 25.8235C97.6241 27.0362 96.5474 27.9636 96.1885 28.249C96.1885 28.249 95.8295 27.1076 96.332 25.8235ZM96.332 28.5343C98.0548 27.3216 97.1216 26.1088 96.4756 25.5381C96.6191 25.2528 96.7627 24.9675 97.1216 24.6821C97.4805 25.0388 97.6241 25.4668 97.6959 26.0375H97.9112C97.9112 25.4668 97.6959 24.8961 97.337 24.4681C97.5523 24.2541 98.1266 23.7547 98.3419 23.6834C98.6291 23.9687 98.9162 24.1827 99.2033 24.5394C99.2033 24.5394 98.4855 25.2528 98.4855 26.1088H98.7009C98.7726 25.6808 98.7726 25.3955 99.3469 24.8248C99.5623 25.1101 99.7776 25.3955 99.8494 25.7522C99.4905 26.0375 98.0548 27.3216 99.8494 28.7483C97.983 31.5305 96.332 28.677 96.332 28.5343ZM99.9929 28.463C98.5573 27.1789 99.8494 26.1088 99.9929 26.0375C100.208 26.6795 100.208 27.7496 99.9929 28.463ZM100.352 28.6056C100.639 27.7496 100.639 26.7509 100.28 25.8948C100.352 25.8948 101.07 25.6095 101.429 25.6095C102.075 27.3216 103.223 27.8209 103.295 27.9636C102.505 28.5343 101.357 28.8197 100.352 28.6056ZM103.439 27.7496C103.439 27.7496 102.218 27.1076 101.644 25.5381C102.721 25.6095 103.941 26.1802 104.946 26.4655L103.439 27.7496ZM107.171 27.1076C106.453 27.7496 105.09 28.1776 103.726 27.8209L105.233 26.6082C105.879 26.8222 106.525 26.9649 107.171 27.1076ZM108.033 23.3267C107.387 23.9687 106.597 24.6821 105.879 25.3241C104.515 24.8961 103.008 24.7534 101.572 25.0388C101.572 24.5394 101.572 24.1827 101.716 23.6834C103.726 23.2554 106.023 23.398 108.033 23.3267ZM110.114 9.91531C110.473 9.48729 111.191 8.20322 111.335 7.91787C111.909 6.6338 111.909 5.13572 111.909 4.56503C112.124 5.13572 112.196 5.77776 112.268 6.41979C112.555 8.3459 112.411 10.486 112.124 12.4121C111.335 12.9115 110.473 13.2682 109.684 13.6248C109.899 12.4121 110.114 11.2707 110.114 9.91531ZM109.827 10.272C109.755 11.5561 109.612 12.6261 109.253 13.7675C108.822 14.0529 105.52 15.6223 104.731 16.9064C103.941 14.5522 108.535 11.9128 109.827 10.272ZM108.822 15.6936C108.535 16.3357 108.033 17.1917 107.387 17.5484C106.741 17.9764 105.664 17.9051 105.09 17.4771C106.095 16.6923 107.602 16.1216 108.822 15.6936ZM104.731 20.6159C106.453 19.9025 108.679 19.1178 110.401 18.6184C109.684 19.7598 106.741 22.1853 104.731 20.6159ZM110.904 17.1204C109.325 17.6197 107.674 18.1191 106.094 18.8325C105.52 19.1178 104.874 19.4745 104.3 19.8312C104.085 18.9751 104.3 18.1191 104.946 17.6197C105.448 17.9764 106.023 18.1191 106.669 18.0477C107.961 17.9051 108.679 16.7637 109.181 15.5509C110.114 15.1229 111.048 14.6949 111.909 14.1242C111.765 15.0516 111.406 16.0503 111.048 16.9777C110.976 17.049 111.048 17.049 110.904 17.1204Z" fill="#256CBA"/>
</g>
</g>
<defs>
<clipPath id="clip0_434_1662">
<rect width="1440" height="895" fill="white" transform="translate(-1040 -513)"/>
</clipPath>
<clipPath id="clip1_434_1662">
<rect width="115" height="32" fill="white"/>
</clipPath>
</defs>
</svg>
