<svg width="21" height="21" viewBox="0 0 21 21" fill="none" xmlns="http://www.w3.org/2000/svg">
<g id="vuesax/linear/direct-inbox">
<g id="direct-inbox">
<path id="Vector" d="M10.5 2.16675V8.00008L12.1667 6.33341" stroke="white" stroke-width="1.5" stroke-linecap="round" stroke-linejoin="round"/>
<path id="Vector_2" d="M10.4999 7.99992L8.83325 6.33325" stroke="white" stroke-width="1.5" stroke-linecap="round" stroke-linejoin="round"/>
<path id="Vector_3" d="M2.1499 11.3333H5.8249C6.14157 11.3333 6.4249 11.5083 6.56657 11.7916L7.54157 13.7416C7.8249 14.3083 8.3999 14.6666 9.03324 14.6666H11.9749C12.6082 14.6666 13.1832 14.3083 13.4666 13.7416L14.4416 11.7916C14.5832 11.5083 14.8749 11.3333 15.1832 11.3333H18.8166" stroke="white" stroke-width="1.5" stroke-linecap="round" stroke-linejoin="round"/>
<path id="Vector_4" d="M6.33341 3.94165C3.38341 4.37498 2.16675 6.10832 2.16675 9.66665V13C2.16675 17.1666 3.83341 18.8333 8.00008 18.8333H13.0001C17.1667 18.8333 18.8334 17.1666 18.8334 13V9.66665C18.8334 6.10832 17.6167 4.37498 14.6667 3.94165" stroke="white" stroke-width="1.5" stroke-linecap="round" stroke-linejoin="round"/>
</g>
</g>
</svg>
