<svg width="105" height="72" viewBox="0 0 105 72" fill="none" xmlns="http://www.w3.org/2000/svg">
<path d="M10.9985 9.33035H11.6228C12.2992 9.33035 12.8483 9.24879 13.2333 9.0404C13.6186 8.83201 13.8297 8.49223 13.8297 7.9803C13.8297 7.43664 13.6277 7.09686 13.2615 6.89297C12.8955 6.69363 12.3741 6.62566 11.7402 6.62566H10.9985V9.33035ZM10.2705 5.96875H11.7871C12.8201 5.96875 13.5057 6.12278 13.9379 6.44446C14.3698 6.77064 14.5434 7.25543 14.5434 7.92138C14.5434 8.37895 14.4494 8.7414 14.2665 9.02681C14.0834 9.31675 13.8203 9.52065 13.4965 9.66562C13.5714 9.85137 13.7031 10.087 13.8719 10.327C14.0362 10.5672 14.2337 10.8118 14.4448 11.0112C14.6513 11.215 14.8675 11.3826 15.0739 11.4597L14.675 12.0305C14.4307 11.9807 14.1771 11.7995 13.9379 11.5503C13.6935 11.3011 13.4634 10.9976 13.2664 10.694C13.069 10.3905 12.9046 10.1005 12.7967 9.88306C12.3975 9.96007 11.9423 9.98726 11.4493 9.98726H10.9985V11.9399H10.2705V5.96875Z" fill="#BF2B86"/>
<path d="M19.7887 5.96875V6.62116H16.7885V8.62811H19.7887V9.28052H16.7885V11.2875H19.7887V11.9399H16.0605V5.96875H19.7887Z" fill="#BF2B86"/>
<path d="M20.4594 11.129C20.7881 11.2739 21.394 11.3781 21.8211 11.3781C22.5348 11.3781 23.2393 11.129 23.2393 10.395C23.2393 9.99635 23.0468 9.76072 22.6945 9.54783C22.3986 9.36658 21.22 8.83201 20.9667 8.62812C20.6662 8.39709 20.4784 8.02558 20.4784 7.48646C20.4784 6.3629 21.3095 5.87815 22.394 5.87815C22.7745 5.87815 23.1452 5.94157 23.4835 6.03672V6.63475L23.4694 6.6438C23.1874 6.58943 22.7886 6.52147 22.394 6.52147C21.7086 6.52147 21.1402 6.7344 21.1402 7.43209C21.1402 7.72658 21.2388 7.88965 21.4081 8.03463C21.7131 8.29739 22.6759 8.67344 23.1407 8.99512C23.6478 9.34394 23.9152 9.57502 23.9152 10.241C23.9152 11.428 22.8869 12.0305 21.7086 12.0305C21.2578 12.0305 20.8212 11.9444 20.4453 11.7677V11.1335L20.4594 11.129Z" fill="#BF2B86"/>
<path d="M28.818 5.96875V6.62116H25.8178V8.62811H28.818V9.28052H25.8178V11.2875H28.818V11.9399H25.0898V5.96875H28.818Z" fill="#BF2B86"/>
<path d="M32.9218 9.89665L31.7855 6.72081L30.649 9.89665H32.9218ZM30.4191 10.5491L29.9212 11.9399H29.1699L31.2971 5.96875H32.2691L34.4008 11.9399H33.6495L33.1518 10.5491H30.4191Z" fill="#BF2B86"/>
<path d="M35.9973 9.33035H36.6218C37.2977 9.33035 37.8471 9.24879 38.2324 9.0404C38.6174 8.83201 38.8285 8.49223 38.8285 7.9803C38.8285 7.43664 38.6266 7.09686 38.2605 6.89297C37.8943 6.69363 37.3731 6.62566 36.739 6.62566H35.9973V9.33035ZM35.2695 5.96875H36.7862C37.8189 5.96875 38.5045 6.12278 38.9365 6.44446C39.3687 6.77064 39.5422 7.25543 39.5422 7.92138C39.5422 8.37895 39.4485 8.7414 39.2651 9.02681C39.0822 9.31675 38.8191 9.52065 38.4953 9.66562C38.5702 9.85137 38.7019 10.087 38.8707 10.327C39.0351 10.5672 39.2325 10.8118 39.4436 11.0112C39.6502 11.215 39.8662 11.3826 40.0728 11.4597L39.6737 12.0305C39.4295 11.9807 39.1761 11.7995 38.9365 11.5503C38.6923 11.3011 38.4622 10.9976 38.2652 10.694C38.0678 10.3905 37.9035 10.1005 37.7957 9.88306C37.3964 9.96007 36.9411 9.98726 36.4481 9.98726H35.9973V11.9399H35.2695V5.96875Z" fill="#BF2B86"/>
<path d="M45.1957 11.2014V11.8447C44.9846 11.9037 44.7357 11.9489 44.4916 11.9807C44.2427 12.0169 43.9892 12.0305 43.7685 12.0305C42.7353 12.0305 41.9605 11.7043 41.4534 11.1425C40.9418 10.5807 40.6836 9.78791 40.6836 8.85919C40.7022 8.02103 40.9559 7.26898 41.463 6.7344C41.9699 6.19983 42.7353 5.87815 43.7685 5.87815C43.9892 5.87815 44.2427 5.89629 44.4916 5.92798C44.7357 5.95971 44.9846 6.00499 45.1957 6.0639V6.70722L45.163 6.72536C44.9423 6.65739 44.6982 6.61207 44.4585 6.58038C44.2193 6.54865 43.9937 6.53506 43.806 6.53506C43.0031 6.53506 42.4021 6.78423 42.0077 7.20556C41.6086 7.62689 41.4067 8.23852 41.4067 8.9498C41.4067 9.65653 41.6037 10.2591 42.003 10.6895C42.4021 11.1199 42.9982 11.3736 43.806 11.3736C43.9937 11.3736 44.2193 11.36 44.4585 11.3283C44.6982 11.2966 44.9423 11.2512 45.163 11.1833L45.1957 11.2014Z" fill="#BF2B86"/>
<path d="M46.8625 9.30316V11.9399H46.1348V5.96875H46.8625V8.60547H49.8817V5.96875H50.6097V11.9399H49.8817V9.30316H46.8625Z" fill="#BF2B86"/>
<path d="M55.6519 11.9399H54.9287V5.96875H55.6519V11.9399Z" fill="#BF2B86"/>
<path d="M57.8832 11.9399H57.1553V5.96875H57.9111L60.9023 10.5853V5.96875H61.6302V11.9399H60.9023L57.8832 7.28257V11.9399Z" fill="#BF2B86"/>
<path d="M62.7703 11.129C63.0987 11.2739 63.7045 11.3781 64.1319 11.3781C64.8455 11.3781 65.5499 11.129 65.5499 10.395C65.5499 9.99635 65.3575 9.76072 65.0051 9.54783C64.7094 9.36658 63.5309 8.83201 63.2771 8.62812C62.9766 8.39709 62.789 8.02558 62.789 7.48646C62.789 6.3629 63.6199 5.87815 64.7046 5.87815C65.0849 5.87815 65.4561 5.94157 65.7941 6.03672V6.63475L65.7802 6.6438C65.4984 6.58943 65.0993 6.52147 64.7046 6.52147C64.019 6.52147 63.4511 6.7344 63.4511 7.43209C63.4511 7.72658 63.5497 7.88965 63.7184 8.03463C64.0238 8.29739 64.9864 8.67344 65.4513 8.99512C65.9586 9.34394 66.2259 9.57502 66.2259 10.241C66.2259 11.428 65.1979 12.0305 64.019 12.0305C63.5684 12.0305 63.1319 11.9444 62.7559 11.7677V11.1335L62.7703 11.129Z" fill="#BF2B86"/>
<path d="M70.6636 5.96875V6.62116H68.7481V11.9399H68.0249V6.62116H66.1094V5.96875H70.6636Z" fill="#BF2B86"/>
<path d="M72.3491 11.9399H71.626V5.96875H72.3491V11.9399Z" fill="#BF2B86"/>
<path d="M77.8663 5.96875V6.62116H75.9502V11.9399H75.2271V6.62116H73.3115V5.96875H77.8663Z" fill="#BF2B86"/>
<path d="M83.196 5.96875V9.71999C83.196 10.395 83.0552 10.8843 82.8297 11.2241C82.6042 11.5684 82.2945 11.7723 81.9517 11.8855C81.6089 11.9988 81.2334 12.0305 80.8809 12.0305C80.529 12.0305 80.1626 11.9988 79.8246 11.8855C79.4817 11.7723 79.1764 11.5729 78.9514 11.2286C78.7259 10.8843 78.5898 10.4041 78.5898 9.71999V5.96875H79.313V9.49346C79.313 10.087 79.4019 10.4992 79.5524 10.7755C79.6976 11.0519 79.9092 11.206 80.139 11.292C80.3693 11.3781 80.6275 11.3872 80.8766 11.3872C81.1535 11.3872 81.4209 11.3736 81.6603 11.283C81.8998 11.1969 82.0974 11.0429 82.2426 10.762C82.3883 10.4811 82.4729 10.0779 82.4729 9.49346V5.96875H83.196Z" fill="#BF2B86"/>
<path d="M88.4918 5.96875V6.62116H86.5762V11.9399H85.8531V6.62116H83.9375V5.96875H88.4918Z" fill="#BF2B86"/>
<path d="M92.8073 5.96875V6.62116H89.807V8.62811H92.8073V9.28052H89.807V11.2875H92.8073V11.9399H89.0791V5.96875H92.8073Z" fill="#BF2B86"/>
<path d="M11.2288 20.2904H10.1299V14.3193H11.2288L13.8019 18.2925V14.3193H14.9005V20.2904H13.8019L11.2288 16.3217V20.2904Z" fill="#BF2B86"/>
<path d="M19.295 18.0342L18.4595 15.6875L17.6188 18.0342H19.295ZM17.8162 14.2287H19.1025L21.2673 20.2904H20.1026L19.6615 19.0536H17.2574L16.816 20.2904H15.6514L17.8162 14.2287Z" fill="#BF2B86"/>
<path d="M25.7467 14.3193V15.3386H23.8687V20.2904H22.7699V15.3386H20.8916V14.3193H25.7467Z" fill="#BF2B86"/>
<path d="M27.5029 14.3193V17.6809C27.5029 18.374 27.6486 18.7954 27.8975 19.04C28.1461 19.2846 28.517 19.3617 28.9537 19.3617C29.4 19.3617 29.7613 19.2846 30.0104 19.04C30.2593 18.7954 30.4046 18.374 30.4046 17.6809V14.3193H31.5036V17.9844C31.5036 18.6866 31.3345 19.185 31.0714 19.5429C30.8039 19.9008 30.4518 20.1047 30.0808 20.227C29.705 20.3493 29.3247 20.381 29.0054 20.381H28.9021C28.5828 20.381 28.2024 20.3493 27.8315 20.227C27.4561 20.1047 27.1039 19.9008 26.841 19.5429C26.5734 19.185 26.4043 18.6866 26.4043 17.9844V14.3193H27.5029Z" fill="#BF2B86"/>
<path d="M33.6825 17.4861H34.3774C35.016 17.4861 35.4292 17.3819 35.683 17.2007C35.9363 17.0194 36.0257 16.7612 36.0257 16.4395C36.0257 16.1133 35.9363 15.8415 35.683 15.6467C35.4292 15.4519 35.016 15.3386 34.3774 15.3386H33.6825V17.4861ZM32.584 14.3193H34.3589C34.7674 14.3193 35.2085 14.3691 35.6217 14.496C36.0351 14.6228 36.4061 14.8312 36.6829 15.1529C36.9599 15.4745 37.1292 15.8959 37.1292 16.4713C37.1292 16.888 37.0212 17.2278 36.8332 17.5042C36.6453 17.7806 36.3824 17.998 36.0678 18.1566C36.1946 18.4284 36.4436 18.7455 36.73 19.0174C37.0163 19.2937 37.3451 19.5293 37.6267 19.6245V19.6743L37.1383 20.381C36.8332 20.381 36.5186 20.2496 36.2276 20.0458C35.9363 19.8464 35.6689 19.5746 35.4529 19.2892C35.2367 19.0038 35.0723 18.7093 34.9833 18.4692C34.7814 18.5009 34.5699 18.5054 34.3589 18.5054H33.6825V20.2904H32.584V14.3193Z" fill="#BF2B86"/>
<path d="M42.0076 14.3193V15.3386H39.4296V16.811H41.9372V17.8304H39.4296V19.271H42.0076V20.2904H38.3311V14.3193H42.0076Z" fill="#BF2B86"/>
<path d="M48.7502 18.0342L47.9141 15.6875L47.0738 18.0342H48.7502ZM47.2708 14.2287H48.5574L50.722 20.2904H49.5575L49.1161 19.0536H46.7121L46.2709 20.2904H45.1064L47.2708 14.2287Z" fill="#BF2B86"/>
<path d="M52.5723 20.2904H51.4736V14.3193H52.5723L55.1451 18.2925V14.3193H56.2443V20.2904H55.1451L52.5723 16.3217V20.2904Z" fill="#BF2B86"/>
<path d="M58.5635 19.2756H59.3852C60.2536 19.2756 60.8219 18.9947 61.1786 18.6096C61.5311 18.2245 61.6623 17.7307 61.6623 17.3003C61.6623 16.8065 61.4652 16.3127 61.0709 15.9457C60.6762 15.5833 60.0848 15.3386 59.3006 15.3386H58.5635V19.2756ZM57.4648 14.3193H59.5165C60.5262 14.3193 61.3479 14.6545 61.9205 15.1937C62.4937 15.7328 62.8081 16.4803 62.8081 17.2958C62.8081 18.0388 62.5499 18.7863 62.0143 19.3481C61.4792 19.9099 60.6719 20.2904 59.5684 20.2904H57.4648V14.3193Z" fill="#BF2B86"/>
<path d="M70.0994 14.3193V15.3386H67.3809V16.811H70.0056V17.8304H67.3809V20.2904H66.2822V14.3193H70.0994Z" fill="#BF2B86"/>
<path d="M71.71 17.255C71.71 17.853 71.8744 18.3831 72.1937 18.7591C72.5081 19.1352 72.9779 19.3617 73.5977 19.3617C74.1987 19.3617 74.654 19.1533 74.9593 18.7908C75.2646 18.4329 75.4243 17.93 75.4243 17.3456C75.4243 16.6615 75.1848 16.1315 74.8324 15.7781C74.4756 15.4247 74.0015 15.2435 73.5318 15.2435C73.0765 15.2435 72.6163 15.4157 72.2783 15.7554C71.9355 16.0952 71.71 16.5981 71.71 17.255ZM70.6113 17.3003C70.6113 16.4305 70.9166 15.6648 71.4422 15.1121C71.9682 14.5594 72.7149 14.2287 73.5977 14.2287C74.4804 14.2287 75.2127 14.5594 75.7248 15.1121C76.2316 15.6648 76.5229 16.4305 76.5229 17.3003C76.5229 18.1702 76.2224 18.9358 75.6964 19.4885C75.1704 20.0412 74.4285 20.381 73.5457 20.381C72.663 20.381 71.9259 20.0412 71.4191 19.4885C70.907 18.9358 70.6113 18.1702 70.6113 17.3003Z" fill="#BF2B86"/>
<path d="M78.5137 17.4861H79.209C79.8475 17.4861 80.2605 17.3819 80.5144 17.2007C80.7678 17.0194 80.8567 16.7612 80.8567 16.4395C80.8567 16.1133 80.7678 15.8415 80.5144 15.6467C80.2605 15.4519 79.8475 15.3386 79.209 15.3386H78.5137V17.4861ZM77.415 14.3193H79.1902C79.5984 14.3193 80.0398 14.3691 80.4533 14.496C80.8663 14.6228 81.237 14.8312 81.5145 15.1529C81.7914 15.4745 81.9602 15.8959 81.9602 16.4713C81.9602 16.888 81.8525 17.2278 81.6645 17.5042C81.4769 17.7806 81.2139 17.998 80.899 18.1566C81.026 18.4284 81.275 18.7455 81.5611 19.0174C81.8477 19.2937 82.1765 19.5293 82.4583 19.6245V19.6743L81.9698 20.381C81.6645 20.381 81.35 20.2496 81.0586 20.0458C80.7678 19.8464 80.4999 19.5746 80.2841 19.2892C80.0682 19.0038 79.9037 18.7093 79.8143 18.4692C79.6128 18.5009 79.4013 18.5054 79.1902 18.5054H78.5137V20.2904H77.415V14.3193Z" fill="#BF2B86"/>
<path d="M86.8389 14.3193V15.3386H84.2612V16.811H86.7682V17.8304H84.2612V19.271H86.8389V20.2904H83.1621V14.3193H86.8389Z" fill="#BF2B86"/>
<path d="M90.8392 15.3251C90.5526 15.2661 90.1257 15.2254 89.7122 15.2254C89.3506 15.2254 89.0501 15.2571 88.8486 15.3431C88.6467 15.4292 88.5337 15.5606 88.5337 15.7736C88.5337 15.991 88.6698 16.1723 88.8765 16.3263C89.0833 16.4803 89.3602 16.6162 89.6324 16.725C89.7689 16.7838 89.9002 16.8337 90.0271 16.8835C90.2853 16.9786 90.5339 17.0783 90.8204 17.2731C91.107 17.4725 91.3277 17.7307 91.459 18.0478C91.52 18.2064 91.5532 18.3831 91.5532 18.5734C91.5532 19.185 91.196 19.6335 90.6892 19.9325C90.1819 20.2315 89.5198 20.381 88.914 20.381C88.4303 20.381 87.9471 20.295 87.5336 20.1182V19.1216L87.5476 19.117C87.7216 19.185 87.9562 19.2484 88.2096 19.2982C88.4635 19.3526 88.7404 19.3843 89.0083 19.3843C89.4352 19.3843 89.7877 19.2982 90.0362 19.1623C90.2805 19.0264 90.4214 18.8361 90.4214 18.6141C90.4214 18.3967 90.2853 18.2109 90.0834 18.0569C89.8766 17.9029 89.6093 17.776 89.3367 17.6673C89.2006 17.6129 89.0645 17.5631 88.9328 17.5133C88.6698 17.4181 88.4303 17.3185 88.1486 17.1282C87.8673 16.9379 87.637 16.6887 87.5057 16.3625C87.435 16.1994 87.4023 16.0182 87.4023 15.8188C87.4023 15.2435 87.7077 14.8448 88.1486 14.5911C88.59 14.3374 89.1722 14.2287 89.7405 14.2287C90.1396 14.2287 90.5151 14.283 90.8531 14.3691L90.8392 15.3251Z" fill="#BF2B86"/>
<path d="M96.5027 14.3193V15.3386H94.6242V20.2904H93.5255V15.3386H91.6475V14.3193H96.5027Z" fill="#BF2B86"/>
<path d="M42.9345 48.2678H45.6179V46.0469C45.6179 44.6099 45.3217 43.3407 44.7324 42.2429V39.0477H41.3674C40.7773 38.7347 40.1261 38.4587 39.4143 38.2205C36.3345 37.1892 32.6761 37.0447 30.2192 37.0244C29.7052 37.0044 29.3759 37.0175 29.3089 37.0206C29.2467 37.0177 28.9311 37.0049 28.4328 37.0231C26.6521 37.0345 24.76 37.1 22.8235 37.3774C20.5815 37.6988 18.7046 38.2593 17.226 39.0477H13.8855V42.2407C13.2972 43.3413 13 44.6126 13 46.0469V48.2678H15.6835H18.7834H26.4173H32.2007H39.8345H42.9345ZM21.4668 46.0485C21.4668 46.0426 21.4692 45.8723 21.4933 45.5843H23.7338V47.8513H21.4668V46.0485ZM21.5359 45.1678C21.6363 44.3332 21.8825 43.0167 22.4846 41.7135C22.8279 40.9699 23.2464 40.318 23.7338 39.7618V45.1678H21.5359ZM18.7834 45.5843H21.0359C21.0451 45.7379 21.0504 45.8921 21.0504 46.0469V47.8513H18.7834V45.5843ZM13.4282 45.5843H15.6835V47.8513H13.4165V46.0469C13.4165 45.8907 13.4207 45.7366 13.4282 45.5843ZM16.515 39.4641C16.4461 39.5084 16.3779 39.5532 16.3112 39.5987C15.4893 40.1589 14.8192 40.813 14.302 41.5582V39.4641H16.515ZM17.0255 42.4844H15.6835V45.1678H13.4583C13.5568 44.1341 13.8322 43.198 14.282 42.3769C14.2842 42.373 14.2865 42.3693 14.2887 42.3653H14.302V42.3419C14.8189 41.4129 15.5732 40.6056 16.5457 39.9428C16.6995 39.838 16.8597 39.7365 17.0255 39.6381V42.4844ZM18.3669 42.9009V45.1678V45.5843V47.8513H16.0999V45.5843V45.1678V42.9009H18.3669ZM17.442 39.6144C18.4726 40.2317 19.341 41.0923 19.9661 42.1219C20.5257 43.0437 20.8762 44.0831 20.9997 45.1678H18.7834V42.4844H17.442V39.6144ZM24.6907 37.5876C22.9874 38.0496 20.9306 38.9235 19.2993 40.5743C18.8277 40.0774 18.288 39.6402 17.6893 39.2775C19.0818 38.5841 20.8218 38.085 22.8826 37.7897C23.49 37.7027 24.0932 37.6373 24.6907 37.5876ZM25.6601 37.7828C25.2715 37.9682 24.9043 38.1866 24.5599 38.4389C24.2986 38.6302 24.0503 38.8409 23.8154 39.07C23.7878 39.0966 23.761 39.1244 23.7338 39.1517C23.0808 39.8086 22.5334 40.6113 22.1008 41.551C21.6625 42.5032 21.4071 43.4486 21.2584 44.2253C20.9704 42.9836 20.3924 41.839 19.5788 40.8841C21.4357 38.9953 23.8844 38.1555 25.6601 37.7828ZM26.4173 40.2249C25.3453 41.0029 24.582 41.969 24.1503 43.0813V39.326C24.3602 39.1251 24.5805 38.9396 24.8119 38.7706C25.2988 38.4149 25.8355 38.131 26.4173 37.917V40.2249ZM26.4173 45.1678H24.1537C24.208 43.3738 24.9684 41.8887 26.4173 40.7461V42.4844V45.1678ZM26.4173 47.8513H24.1503V45.5843H26.4173V47.8513ZM29.1007 38.91C28.7385 39.0134 27.8184 39.3149 26.8337 39.9416V37.7773C27.5301 37.5692 28.2876 37.4571 29.1007 37.4407V38.91ZM29.1007 42.4844H26.8337V40.4404C27.7553 39.81 28.6698 39.4791 29.1007 39.3455V42.4844ZM29.1007 47.8513H26.8337V45.5843V45.5102V45.1678V42.9009H29.1007V45.1678V45.5843V47.8513ZM37.5671 46.0469H37.5676C37.5676 45.8921 37.5729 45.7379 37.5821 45.5843H39.8345V47.8513H37.5671V46.0469ZM34.8841 45.5843H37.1243C37.1483 45.8717 37.1506 46.0413 37.1506 46.0469V47.8513H34.8841V45.5843ZM34.8841 39.7623C35.3714 40.3183 35.7897 40.97 36.1331 41.7135C36.7351 43.017 36.9813 44.3336 37.0817 45.1678H34.8841V39.7623ZM32.2007 45.5843H34.4676V47.8513H32.2007V45.5843ZM32.2007 40.7463C33.6495 41.8887 34.4099 43.3736 34.4642 45.1678H32.2007V42.4844V40.7463ZM31.7842 39.9414C30.7995 39.3149 29.8794 39.0134 29.5172 38.91V37.4407C30.3305 37.4572 31.0878 37.5692 31.7842 37.7775V39.9414ZM31.7842 42.4844H29.5172V39.3452C29.9477 39.4785 30.8608 39.8086 31.7842 40.4404V42.4844ZM31.7842 47.8513H29.5172V45.5843V45.1678V42.9009H31.7842V45.1678V45.376V45.5843V47.8513ZM32.2007 37.9172C32.7824 38.1311 33.3188 38.4151 33.8056 38.7706C34.0371 38.9398 34.2578 39.1255 34.4676 39.3263V43.0813C34.0359 41.969 33.2726 41.0029 32.2007 40.2249V37.9172ZM32.9572 37.7826C34.7355 38.1558 37.1831 38.996 39.0392 40.8841C38.2254 41.8392 37.6472 42.9843 37.3594 44.2262C37.2107 43.4494 36.9553 42.5037 36.5168 41.551C36.0843 40.6116 35.537 39.8089 34.8841 39.1521C34.8718 39.1395 34.8593 39.127 34.8468 39.1147C34.5986 38.8685 34.3357 38.6426 34.0576 38.4389C33.713 38.1866 33.3458 37.968 32.9572 37.7826ZM40.916 39.2851C40.3223 39.6464 39.787 40.0808 39.3188 40.5742C37.7076 38.9438 35.6814 38.0714 33.9905 37.6049C35.7339 37.7583 37.6 38.0521 39.2821 38.6154C39.8693 38.8119 40.414 39.0358 40.916 39.2851ZM41.1761 42.4844H39.8345V45.1678H37.6184C37.7419 44.0831 38.0923 43.0437 38.652 42.1219C39.277 41.0923 40.1453 40.2317 41.1761 39.6144V42.4844ZM42.518 42.9009V45.1678V45.5843V47.8513H40.251V45.5843V45.1678V42.9009H42.518ZM44.316 41.5649C43.7529 40.7567 43.0078 40.0559 42.0822 39.4641H44.316V41.5649ZM45.1604 45.1678H42.9345V42.4844H41.5924V39.6526C42.3424 40.0972 42.9777 40.6086 43.49 41.1849C43.81 41.5445 44.0854 41.9326 44.316 42.3483V42.3653H44.3253C44.7817 43.1935 45.0611 44.1303 45.1604 45.1678ZM45.2015 47.8513H42.9345V45.5843H45.1899C45.1974 45.7365 45.2015 45.8905 45.2015 46.0469V47.8513ZM31.7394 36.4456C31.7416 36.4164 31.7868 35.7246 31.2639 35.1611C30.8463 34.7112 30.1983 34.4791 29.338 34.4693C29.3285 34.4691 29.3195 34.4683 29.31 34.4683C29.3069 34.4683 29.3039 34.4686 29.3008 34.4686C29.2944 34.4686 29.2885 34.4683 29.2821 34.4683C28.3938 34.4683 27.7334 34.7016 27.3199 35.1616C26.8108 35.7276 26.878 36.4224 26.8811 36.4517L26.8995 36.6249H31.726L31.7394 36.4456ZM28.1948 35.0295C27.9285 35.3929 27.8123 35.8659 27.7827 36.2374H27.2678C27.283 36.04 27.3499 35.7076 27.6079 35.4205C27.7587 35.2531 27.955 35.1227 28.1948 35.0295ZM29.1163 36.2374H28.1747C28.1912 36.0803 28.2291 35.8475 28.3172 35.6153C28.4808 35.184 28.7493 34.9353 29.1163 34.8723V36.2374ZM30.4465 36.2374H29.5038V34.872C30.2398 34.9991 30.408 35.8473 30.4465 36.2374ZM31.3445 36.2374H30.8374C30.8086 35.8757 30.6979 35.4181 30.4465 35.0588C30.6575 35.1492 30.8348 35.2696 30.9759 35.4202C31.2413 35.7039 31.3212 36.0369 31.3445 36.2374ZM29.8119 33.7706V33.5354C29.8119 33.2403 29.5906 33 29.3186 33H29.2994C29.0274 33 28.806 33.2403 28.806 33.5354V33.7706C28.806 34.0659 29.0274 34.306 29.2994 34.306H29.3186C29.5906 34.306 29.8119 34.0659 29.8119 33.7706ZM29.3954 33.7706C29.3954 33.8387 29.3549 33.8895 29.3186 33.8895H29.2994C29.2632 33.8895 29.2225 33.8387 29.2225 33.7706V33.5354C29.2225 33.4674 29.2632 33.4165 29.2994 33.4165H29.3186C29.3549 33.4165 29.3954 33.4674 29.3954 33.5354V33.7706Z" fill="#1E513D"/>
<path d="M18.3649 55.8637L17.5084 57.6108H15.7668L14.8817 55.8409L14.8304 59.9464H13.083L13.1345 52.4204H14.9274L16.629 55.8579L18.3135 52.4204H20.1122L20.1808 59.9464H18.4334L18.3649 55.8637Z" fill="#1E513D"/>
<path d="M24.8016 56.1606C24.7254 55.5094 24.4914 55.184 24.0994 55.184C23.8937 55.184 23.7072 55.272 23.5397 55.4477C23.3721 55.6234 23.2408 55.861 23.1457 56.1606H24.8016ZM26.3319 59.6656C25.8066 59.9289 25.1366 60.0605 24.322 60.0605C23.5112 60.0605 22.8088 59.7986 22.215 59.2745C21.6211 58.7505 21.3242 57.9997 21.3242 57.0219C21.3242 56.0444 21.564 55.2804 22.0437 54.7303C22.5233 54.1802 23.2008 53.905 24.0764 53.905C24.952 53.905 25.5897 54.1828 25.9893 54.7387C26.3015 55.1726 26.4576 55.7457 26.4576 56.4575V57.4396H23.0601C23.1286 57.8654 23.2808 58.1955 23.5168 58.4299C23.7529 58.6644 24.027 58.7815 24.3392 58.7815C24.6512 58.7815 25.0092 58.719 25.4126 58.5939C25.8161 58.469 26.115 58.3557 26.3091 58.2542L26.3319 58.2716V59.6656Z" fill="#1E513D"/>
<path d="M27.7889 53.1569C27.6632 52.9706 27.6005 52.744 27.6005 52.4775C27.6005 52.211 27.6863 51.9826 27.8581 51.7922C28.0299 51.6019 28.2343 51.5088 28.4715 51.5124C28.7119 51.5124 28.9181 51.6076 29.0899 51.798C29.2617 51.9884 29.3478 52.2148 29.3478 52.4775C29.3514 52.7364 29.2592 52.9609 29.0707 53.1513C28.8823 53.3417 28.653 53.4368 28.3828 53.4368C28.1124 53.4368 27.9145 53.3435 27.7889 53.1569ZM27.5205 54.0191H29.2678V59.9463H27.5205V54.0191Z" fill="#1E513D"/>
<path d="M33.2165 55.3155C32.7292 55.3155 32.4836 55.4385 32.4799 55.6845C32.4799 55.8712 32.6548 56.0279 33.0052 56.1551C33.1309 56.1988 33.2812 56.2523 33.4563 56.3159C33.9097 56.4748 34.2376 56.6274 34.44 56.7743C34.8945 57.1039 35.1217 57.5773 35.1217 58.1944C35.1217 58.8118 34.8487 59.2859 34.3025 59.6171C33.8213 59.9127 33.238 60.0605 32.5525 60.0605C31.8671 60.0605 31.2846 59.9322 30.8049 59.6759V58.2155L30.8391 58.1915C31.2122 58.3385 31.5186 58.4516 31.7584 58.5309C31.9984 58.6105 32.2686 58.6502 32.5694 58.6502C33.1061 58.6502 33.3744 58.4993 33.3744 58.1976C33.3744 58.0507 33.3173 57.9356 33.2032 57.8522C33.0889 57.7688 32.9196 57.6933 32.6949 57.6258L32.0554 57.4353C31.176 57.1694 30.7363 56.6017 30.7363 55.7322C30.7363 55.1006 30.9761 54.625 31.4558 54.3054C31.8593 54.0386 32.3888 53.905 33.0443 53.905C33.6998 53.905 34.2223 53.9753 34.6118 54.1161V55.5893L34.566 55.6131C34.1536 55.4148 33.7037 55.3155 33.2165 55.3155Z" fill="#1E513D"/>
<path d="M39.2518 56.1606C39.1756 55.5094 38.9415 55.184 38.5496 55.184C38.3439 55.184 38.1574 55.272 37.9899 55.4477C37.8223 55.6234 37.691 55.861 37.5959 56.1606H39.2518ZM40.7821 59.6656C40.2568 59.9289 39.5868 60.0605 38.7722 60.0605C37.9614 60.0605 37.259 59.7986 36.6652 59.2745C36.0713 58.7505 35.7744 57.9997 35.7744 57.0219C35.7744 56.0444 36.0142 55.2804 36.4938 54.7303C36.9735 54.1802 37.651 53.905 38.5266 53.905C39.4021 53.905 40.0399 54.1828 40.4395 54.7387C40.7517 55.1726 40.9077 55.7457 40.9077 56.4575V57.4396H37.5103C37.5788 57.8654 37.731 58.1955 37.967 58.4299C38.2031 58.6644 38.4772 58.7815 38.7894 58.7815C39.1014 58.7815 39.4594 58.719 39.8627 58.5939C40.2663 58.469 40.5652 58.3557 40.7593 58.2542L40.7821 58.2716V59.6656Z" fill="#1E513D"/>
<path d="M14.8303 68.3556V70.2056C15.6364 70.2056 16.1544 70.1665 16.3841 70.0882C16.6139 70.0101 16.774 69.9114 16.8645 69.7921C16.9549 69.6728 17.0001 69.5107 17.0001 69.3058C17.0001 68.9146 16.8325 68.6519 16.4971 68.5178C16.2297 68.4097 15.7513 68.3556 15.062 68.3556H14.8303ZM14.8303 65.2379V66.9453C15.5611 66.9453 16.0142 66.9136 16.1893 66.8505C16.3643 66.7872 16.4862 66.7017 16.5548 66.5937C16.6195 66.482 16.6518 66.3259 16.6518 66.1249C16.6518 65.7418 16.511 65.4908 16.2292 65.3717C16.0159 65.2826 15.5592 65.2379 14.8588 65.2379H14.8303ZM18.7474 69.2723C18.7474 69.9176 18.5651 70.4016 18.2008 70.7241C17.8364 71.0468 17.3692 71.2544 16.7991 71.3465C16.2292 71.4387 15.5352 71.4847 14.7171 71.4847H13.083V63.9588H15.3597C17.3859 63.9588 18.3991 64.6345 18.3991 65.9855C18.3991 66.6195 18.1 67.1317 17.5021 67.5219C18.3322 67.8306 18.7474 68.4141 18.7474 69.2723Z" fill="#1E513D"/>
<path d="M24.0825 68.5552C24.0825 68.0787 23.9642 67.6761 23.7278 67.3473C23.4875 67.0184 23.1535 66.8539 22.7265 66.8539C22.2991 66.8577 21.9673 67.0145 21.7307 67.3245C21.4942 67.6346 21.374 68.0277 21.3702 68.5042C21.3665 68.9806 21.4866 69.3814 21.7307 69.7065C21.9748 70.0316 22.3105 70.1924 22.7379 70.1887C23.1649 70.1887 23.4969 70.0354 23.7334 69.7292C23.97 69.4229 24.0863 69.0317 24.0825 68.5552ZM24.9813 70.7424C24.4156 71.3133 23.6564 71.599 22.7039 71.599C21.7512 71.599 20.9987 71.3119 20.4461 70.7378C19.8935 70.1637 19.6172 69.4248 19.6172 68.5212C19.6172 67.6175 19.8991 66.8787 20.4629 66.3044C21.0266 65.7306 21.7886 65.4434 22.7485 65.4434C23.7086 65.4434 24.4621 65.7289 25.0092 66.2999C25.5563 66.8709 25.8298 67.6095 25.8298 68.5154C25.8298 69.429 25.547 70.1714 24.9813 70.7424Z" fill="#1E513D"/>
<path d="M28.942 64.3414V65.5577H30.5237V66.8367H28.942V68.695C28.942 69.2498 29.0276 69.6376 29.1989 69.8579C29.3664 70.0784 29.6062 70.1886 29.9184 70.1886C30.2305 70.1886 30.5598 70.0707 30.9063 69.8351L31.4372 71.0429C30.8054 71.4135 30.1582 71.5989 29.4958 71.5989C28.8334 71.5989 28.2854 71.4048 27.8513 71.0166C27.4173 70.6282 27.1984 70.0534 27.1947 69.292V66.8367H26.6123V65.5577H27.1947V64.4955L28.8677 64.3414H28.942Z" fill="#1E513D"/>
<path d="M34.6105 69.0408C33.8899 69.0408 33.5295 69.2443 33.5295 69.6509C33.5295 69.8599 33.6338 70.0138 33.8425 70.1126C33.9753 70.1822 34.1326 70.2171 34.3147 70.2171C34.4967 70.2171 34.6751 70.1676 34.8496 70.0688C35.024 69.9698 35.1132 69.858 35.117 69.7334V69.0408H34.6105ZM35.117 68.0016C35.117 67.2174 34.7889 66.8253 34.1328 66.8253C33.873 66.8253 33.5407 66.8823 33.1358 66.9966C32.731 67.1108 32.4388 67.2155 32.2594 67.3107L31.8858 66.0031C32.7823 65.6299 33.568 65.4435 34.2432 65.4435C34.9182 65.4435 35.4756 65.5747 35.9158 65.8373C36.489 66.1763 36.805 66.7052 36.8643 67.4249V69.4256C36.8643 69.7184 36.9137 69.9277 37.0127 70.0538C37.1117 70.1798 37.3724 70.2854 37.795 70.3705L37.0412 71.5989C36.5979 71.5989 36.2615 71.5438 36.0323 71.4336C35.8029 71.3234 35.607 71.1423 35.4443 70.8902C34.9838 71.3628 34.4214 71.5989 33.7572 71.5989C33.2443 71.5989 32.8157 71.471 32.4713 71.215C32.0119 70.8885 31.7822 70.4139 31.7822 69.7914C31.7822 69.1693 31.9657 68.7133 32.3326 68.4241C32.6997 68.131 33.2846 67.9844 34.0873 67.9844C34.2541 67.9844 34.5974 68.0016 35.117 68.0359V68.0016Z" fill="#1E513D"/>
<path d="M42.5469 68.287C42.5469 67.3315 42.2195 66.854 41.5648 66.854C41.2373 66.854 40.8643 66.9718 40.4455 67.2077V71.4847H38.6982V65.5576H39.9774L40.2001 66.1459C40.596 65.8908 40.9481 65.7099 41.2565 65.6033C41.5648 65.4966 41.9036 65.4435 42.2728 65.4435C42.9503 65.4435 43.4567 65.6243 43.7917 65.9859C44.1266 66.3477 44.2942 66.9148 44.2942 67.6874V71.4847H42.5469V68.287Z" fill="#1E513D"/>
<path d="M45.8543 64.6953C45.7286 64.509 45.6659 64.2824 45.6659 64.016C45.6659 63.7495 45.7517 63.5211 45.9235 63.3307C46.0953 63.1403 46.2998 63.0472 46.5369 63.0508C46.7774 63.0508 46.9835 63.1461 47.1553 63.3365C47.3271 63.5268 47.4132 63.7532 47.4132 64.016C47.4168 64.2748 47.3246 64.4993 47.1361 64.6897C46.9478 64.8801 46.7184 64.9752 46.4482 64.9752C46.1778 64.9752 45.98 64.882 45.8543 64.6953ZM45.5859 65.5576H47.3332V71.4847H45.5859V65.5576Z" fill="#1E513D"/>
<path d="M50.4924 68.5356C50.4961 69.1 50.6466 69.5167 50.9435 69.7855C51.2404 70.0541 51.6249 70.1887 52.097 70.1887C52.3559 70.1846 52.6223 70.1405 52.8963 70.056C53.1704 69.9717 53.5074 69.8374 53.907 69.6529L53.9584 69.6701V71.0438C53.2961 71.414 52.5537 71.5989 51.7315 71.5989C50.9092 71.5989 50.206 71.338 49.6216 70.816C49.0372 70.2941 48.7451 69.5338 48.7451 68.5356C48.7451 67.5374 49.0409 66.7705 49.6326 66.2352C50.2248 65.7073 50.9282 65.4435 51.7429 65.4435C52.5575 65.4435 53.2961 65.6147 53.9584 65.9568V67.3493L53.907 67.3722C53.2713 67.0266 52.6908 66.8539 52.1655 66.8539C51.6439 66.8539 51.2348 66.9923 50.9377 67.2686C50.6408 67.545 50.4924 67.9674 50.4924 68.5356Z" fill="#1E513D"/>
<path d="M62.5507 65.4891C61.7639 65.4891 61.1502 65.7096 60.7091 66.1507C60.2683 66.5917 60.0461 67.1145 60.0422 67.719C60.0385 68.3159 60.2416 68.8424 60.6522 69.2986C61.0626 69.7549 61.6061 69.983 62.2825 69.983C62.75 69.983 63.1796 69.8715 63.5711 69.6485V68.6182H62.3148V67.0022H65.3184V71.4847H64.1703L63.696 71.2221C63.1945 71.4733 62.6893 71.599 62.1801 71.599C61.6707 71.599 61.1745 71.4961 60.6913 71.2906C60.2081 71.0851 59.7873 70.7996 59.429 70.4341C59.0703 70.0686 58.7919 69.646 58.593 69.1664C58.3942 68.6868 58.2949 68.1882 58.2949 67.6703C58.2949 66.5968 58.6702 65.6909 59.4212 64.9524C60.1718 64.2138 61.2246 63.8446 62.5793 63.8446C63.2513 63.8446 63.9335 63.9328 64.6258 64.109V65.7442L64.5819 65.7668C63.875 65.5817 63.198 65.4891 62.5507 65.4891Z" fill="#1E513D"/>
<path d="M68.9016 69.0408C68.1809 69.0408 67.8205 69.2443 67.8205 69.6509C67.8205 69.8599 67.9248 70.0138 68.1335 70.1126C68.2663 70.1822 68.4236 70.2171 68.6058 70.2171C68.7879 70.2171 68.9659 70.1676 69.1404 70.0688C69.3149 69.9698 69.4042 69.858 69.408 69.7334V69.0408H68.9016ZM69.408 68.0016C69.408 67.2174 69.0799 66.8253 68.4238 66.8253C68.164 66.8253 67.8318 66.8823 67.4268 66.9966C67.0219 67.1108 66.7298 67.2155 66.5504 67.3107L66.1768 66.0031C67.0733 65.6299 67.859 65.4435 68.5342 65.4435C69.2092 65.4435 69.7666 65.5747 70.2068 65.8373C70.78 66.1763 71.096 66.7052 71.1553 67.4249V69.4256C71.1553 69.7184 71.2047 69.9277 71.3037 70.0538C71.4027 70.1798 71.6634 70.2854 72.0861 70.3705L71.3324 71.5989C70.8888 71.5989 70.5525 71.5438 70.3233 71.4336C70.0939 71.3234 69.8981 71.1423 69.7353 70.8902C69.2748 71.3628 68.7124 71.5989 68.0482 71.5989C67.5353 71.5989 67.1066 71.471 66.7623 71.215C66.3029 70.8885 66.0732 70.4139 66.0732 69.7914C66.0732 69.1693 66.2568 68.7133 66.6238 68.4241C66.9907 68.131 67.5754 67.9844 68.3783 67.9844C68.5451 67.9844 68.8885 68.0016 69.408 68.0359V68.0016Z" fill="#1E513D"/>
<path d="M72.9902 65.5576H74.2693L74.4748 66.1138C74.9089 65.6669 75.3751 65.4435 75.8739 65.4435C76.1898 65.4435 76.5437 65.5297 76.9359 65.7023L76.5191 67.0378C76.2679 66.9152 76.0166 66.8538 75.7654 66.8538C75.3809 66.8538 75.0383 67.0111 74.7375 67.3255V71.4847H72.9902V65.5576Z" fill="#1E513D"/>
<path d="M80.4012 66.8539C79.928 66.8502 79.552 67.0049 79.2736 67.3181C78.9949 67.6312 78.8557 68.0399 78.8557 68.5441C78.8594 69.0484 78.9683 69.4494 79.182 69.7474C79.3957 70.0454 79.7276 70.1924 80.1779 70.1887C80.6282 70.1887 80.9639 70.0281 81.1853 69.7073V66.9913C80.9602 66.8998 80.6987 66.8539 80.4012 66.8539ZM82.9326 71.4847H81.7033L81.4585 71.028C80.9744 71.4086 80.4425 71.599 79.8631 71.599C79.0925 71.599 78.44 71.3171 77.905 70.7533C77.3739 70.1898 77.1084 69.4552 77.1084 68.5499C77.1084 67.6446 77.3933 66.9005 77.9635 66.3178C78.5334 65.7348 79.3097 65.4434 80.2924 65.4434C80.5518 65.4434 80.8515 65.4701 81.1911 65.5234V63.3706L82.7108 63.2165H82.9326V71.4847Z" fill="#1E513D"/>
<path d="M87.6044 67.699C87.5283 67.0479 87.2942 66.7225 86.9021 66.7225C86.6966 66.7225 86.5099 66.8104 86.3425 66.9861C86.175 67.1619 86.0436 67.3995 85.9486 67.699H87.6044ZM89.1346 71.204C88.6093 71.4674 87.9393 71.599 87.1248 71.599C86.3141 71.599 85.6117 71.337 85.0177 70.813C84.424 70.2889 84.127 69.5381 84.127 68.5603C84.127 67.5829 84.3668 66.8188 84.8465 66.2687C85.3262 65.7186 86.0037 65.4434 86.8793 65.4434C87.7548 65.4434 88.3926 65.7213 88.792 66.2772C89.1042 66.7111 89.2604 67.2841 89.2604 67.9959V68.9781H85.8629C85.9315 69.4039 86.0836 69.734 86.3197 69.9683C86.5556 70.2029 86.8297 70.32 87.1419 70.32C87.4541 70.32 87.8119 70.2574 88.2154 70.1324C88.619 70.0075 88.9179 69.8941 89.1118 69.7926L89.1346 69.8101V71.204Z" fill="#1E513D"/>
<path d="M94.253 68.287C94.253 67.3315 93.9255 66.854 93.2708 66.854C92.9435 66.854 92.5704 66.9718 92.1516 67.2077V71.4847H90.4043V65.5576H91.6835L91.906 66.1459C92.3019 65.8908 92.6541 65.7099 92.9625 65.6033C93.2708 65.4966 93.6096 65.4435 93.9789 65.4435C94.6565 65.4435 95.1628 65.6243 95.4977 65.9859C95.8328 66.3477 96.0003 66.9148 96.0003 67.6874V71.4847H94.253V68.287Z" fill="#1E513D"/>
</svg>
