<svg width="17" height="17" viewBox="0 0 17 17" fill="none" xmlns="http://www.w3.org/2000/svg">
<path d="M8.98099 12.4284C8.85711 12.5639 8.68205 12.641 8.49845 12.641C8.31485 12.641 8.1398 12.5639 8.01591 12.4284L4.52872 8.61429C4.28505 8.34778 4.30357 7.93421 4.57007 7.69054C4.83659 7.44687 5.25016 7.46535 5.49383 7.73186L7.84461 10.303V0.653846C7.84461 0.29274 8.13735 0 8.49845 0C8.85955 0 9.1523 0.29274 9.1523 0.653846V10.303L11.5031 7.73186C11.7468 7.46535 12.1603 7.44687 12.4268 7.69054C12.6934 7.93421 12.7118 8.34778 12.4682 8.61429L8.98099 12.4284Z" fill="white"/>
<path d="M1.30769 11.1155C1.30769 10.7544 1.01496 10.4616 0.653847 10.4616C0.29274 10.4616 4.56779e-07 10.7544 4.56779e-07 11.1155V11.1633C-1.69791e-05 12.3556 -3.44775e-05 13.3166 0.101582 14.0724C0.207087 14.8571 0.432786 15.5178 0.957536 16.0425C1.48229 16.5673 2.14299 16.793 2.92771 16.8985C3.68353 17.0001 4.64452 17.0001 5.83678 17.0001H11.1632C12.3555 17.0001 13.3165 17.0001 14.0723 16.8985C14.857 16.793 15.5177 16.5673 16.0425 16.0425C16.5672 15.5178 16.7929 14.8571 16.8984 14.0724C17 13.3166 17 12.3556 17 11.1633V11.1155C17 10.7544 16.7073 10.4616 16.3462 10.4616C15.9851 10.4616 15.6923 10.7544 15.6923 11.1155C15.6923 12.3668 15.6909 13.2396 15.6024 13.8981C15.5164 14.5379 15.3591 14.8766 15.1178 15.1179C14.8765 15.3592 14.5378 15.5164 13.8981 15.6025C13.2395 15.691 12.3668 15.6924 11.1154 15.6924H5.88462C4.63323 15.6924 3.76046 15.691 3.10195 15.6025C2.46225 15.5164 2.12349 15.3592 1.88221 15.1179C1.64094 14.8766 1.48362 14.5379 1.39762 13.8981C1.30908 13.2396 1.30769 12.3668 1.30769 11.1155Z" fill="white"/>
</svg>
