<svg xmlns="http://www.w3.org/2000/svg" width="21.001" height="20.438" viewBox="0 0 21.001 20.438">
  <g id="email_subscribe_icon" data-name="email subscribe icon" transform="translate(-1.968 -0.25)">
    <path id="Path_47446" data-name="Path 47446" d="M3,10l9.469,5.827L21.937,10" transform="translate(0 -2.445)" fill="none" stroke="#fff" stroke-linecap="round" stroke-linejoin="round" stroke-miterlimit="10" stroke-width="1.5"/>
    <path id="Path_47447" data-name="Path 47447" d="M7,9.376V2.457A1.461,1.461,0,0,1,8.457,1h10.2a1.461,1.461,0,0,1,1.457,1.457V9.376" transform="translate(-1.087)" fill="none" stroke="#fff" stroke-linecap="round" stroke-linejoin="round" stroke-miterlimit="10" stroke-width="1.5"/>
    <path id="Path_47448" data-name="Path 47448" d="M19.024,5a2.922,2.922,0,0,1,2.913,2.913v10.2a2.922,2.922,0,0,1-2.913,2.913H5.913A2.922,2.922,0,0,1,3,18.111V7.913A2.922,2.922,0,0,1,5.913,5" transform="translate(0 -1.087)" fill="none" stroke="#fff" stroke-linecap="round" stroke-linejoin="round" stroke-miterlimit="10" stroke-width="1.5"/>
    <line id="Line_2" data-name="Line 2" x2="5" transform="translate(9 3.938)" fill="none" stroke="#fff" stroke-linecap="round" stroke-linejoin="round" stroke-miterlimit="10" stroke-width="1.5"/>
    <line id="Line_3" data-name="Line 3" x2="2" transform="translate(9 6.938)" fill="none" stroke="#fff" stroke-linecap="round" stroke-linejoin="round" stroke-miterlimit="10" stroke-width="1.5"/>
  </g>
</svg>
