<svg xmlns="http://www.w3.org/2000/svg" viewBox="0 0 810 540">
  <rect fill="#039" width="810" height="540"/>
  <g fill="#FC0">
    <path d="M405,96.75l11.91,36.67h38.55l-31.19,22.65 11.91,36.67L405,170.1l-31.19,22.65 11.91-36.67-31.19-22.65h38.55L405,96.75z"/>
    <path d="M405,443.25l11.91-36.67h38.55l-31.19-22.65 11.91-36.67L405,369.9l-31.19-22.65 11.91,36.67-31.19,22.65h38.55L405,443.25z"/>
    <path d="M540.75,270l-36.67,11.91v38.55l22.65-31.19-36.67,11.91L512.1,270l-22.65-31.19 36.67,11.91 22.65-31.19v38.55L540.75,270z"/>
    <path d="M269.25,270l36.67,11.91v38.55l-22.65-31.19 36.67,11.91L297.9,270l22.65-31.19-36.67,11.91-22.65-31.19v38.55L269.25,270z"/>
    <path d="M472.5,175.5l-25.65,29.48-7.5-39.98-7.5,39.98-25.65-29.48 15.88,35.78-38.28,12.44h39.98l-15.88,35.78 25.65-29.48 7.5,39.98 7.5-39.98 25.65,29.48-15.88-35.78 38.28-12.44h-39.98L472.5,175.5z"/>
    <path d="M472.5,364.5l-25.65-29.48-7.5,39.98-7.5-39.98-25.65,29.48 15.88-35.78-38.28-12.44h39.98l-15.88-35.78 25.65,29.48 7.5-39.98 7.5,39.98 25.65-29.48-15.88,35.78 38.28,12.44h-39.98L472.5,364.5z"/>
    <path d="M175.5,337.5l29.48-25.65-39.98-7.5 39.98-7.5-29.48-25.65 35.78,15.88 12.44-38.28v39.98l35.78-15.88-29.48,25.65 39.98,7.5-39.98,7.5 29.48,25.65-35.78-15.88-12.44,38.28v-39.98L175.5,337.5z"/>
    <path d="M634.5,337.5l-29.48-25.65 39.98-7.5-39.98-7.5 29.48-25.65-35.78,15.88-12.44-38.28v39.98l-35.78-15.88 29.48,25.65-39.98,7.5 39.98,7.5-29.48,25.65 35.78-15.88 12.44,38.28v-39.98L634.5,337.5z"/>
  </g>
</svg> 