<svg xmlns="http://www.w3.org/2000/svg" width="16" height="16" viewBox="0 0 16 16" fill="none">
  <path d="M8 1C4.13 1 1 4.13 1 8C1 11.87 4.13 15 8 15C11.87 15 15 11.87 15 8C15 4.13 11.87 1 8 1ZM13.36 7.5H11.78C11.69 6.25 11.42 5.08 11.01 4.05C12.18 4.73 13.05 5.99 13.36 7.5ZM8 13.5C7.31 13.5 6.19 11.81 6 8.5H10C9.81 11.81 8.69 13.5 8 13.5ZM6 7.5C6.19 4.19 7.31 2.5 8 2.5C8.69 2.5 9.81 4.19 10 7.5H6ZM4.99 4.05C4.58 5.08 4.31 6.25 4.22 7.5H2.64C2.95 5.99 3.82 4.73 4.99 4.05ZM2.64 8.5H4.22C4.31 9.75 4.58 10.92 4.99 11.95C3.82 11.27 2.95 10.01 2.64 8.5ZM11.01 11.95C11.42 10.92 11.69 9.75 11.78 8.5H13.36C13.05 10.01 12.18 11.27 11.01 11.95Z" fill="white"/>
</svg> 