<svg xmlns="http://www.w3.org/2000/svg" width="49.177" height="50.456" viewBox="0 0 49.177 50.456">
  <g id="_1" data-name="1" transform="translate(-8.127 -7.09)">
    <path id="Path_14" data-name="Path 14" d="M43.349,22.147a4.809,4.809,0,0,0-2.935-2.553V16.955H48.22a1.233,1.233,0,0,0,1.233-1.233V10.173A3.083,3.083,0,0,0,46.37,7.09H41.03a3.083,3.083,0,0,0-3.083,3.083v9.311a4.8,4.8,0,0,0-3.385,2.664L28.4,35.25,26.01,30.206A3.965,3.965,0,0,0,22.4,27.925h0A3.946,3.946,0,0,0,18.8,30.206h0L8.511,51.849a3.989,3.989,0,0,0,3.607,5.7H52.443a4.853,4.853,0,0,0,4.39-6.937Zm-2.935-11.98a.617.617,0,0,1,.617-.617h5.34a.617.617,0,0,1,.617.617v4.316H40.414ZM25.48,55.079H12.118A1.523,1.523,0,0,1,10.743,52.9L21,31.26h0a1.5,1.5,0,0,1,1.381-.869h0a1.492,1.492,0,0,1,1.375.869L34,52.9a1.523,1.523,0,0,1-1.375,2.177Zm28.98-1.11a2.355,2.355,0,0,1-2.016,1.11H36.3a3.965,3.965,0,0,0-.074-3.231l-6.5-13.719,7.066-14.922a2.392,2.392,0,0,1,4.316,0L54.6,51.664A2.349,2.349,0,0,1,54.46,53.97ZM25.233,16.832A6.431,6.431,0,1,0,18.8,23.263a6.431,6.431,0,0,0,6.431-6.431Zm-10.4,0A3.965,3.965,0,1,1,18.8,20.8,3.965,3.965,0,0,1,14.831,16.832Z" fill="#fff"/>
  </g>
</svg>
