<svg xmlns="http://www.w3.org/2000/svg" width="53.747" height="50.374" viewBox="0 0 53.747 50.374">
  <g id="noun-vision-6917105" transform="translate(-0.855 -3.941)">
    <g id="Group_6" data-name="Group 6" transform="translate(0.855 3.941)">
      <path id="Path_1" data-name="Path 1" d="M50.234,12.6V5.308a1.367,1.367,0,0,0-2.734,0V12.6a1.367,1.367,0,1,0,2.734,0Z" transform="translate(-21.994 -3.941)" fill="#fff"/>
      <path id="Path_2" data-name="Path 2" d="M19.178,20.319a1.366,1.366,0,0,0,.968-2.339L16.5,14.334l0,0a1.369,1.369,0,0,0-1.935,1.937l3.646,3.646v0a1.359,1.359,0,0,0,.965.4Z" transform="translate(-6.887 -8.47)" fill="#fff"/>
      <path id="Path_3" data-name="Path 3" d="M76.489,19.918l3.646-3.646,0,0A1.368,1.368,0,1,0,78.2,14.336l-3.646,3.646v0a1.381,1.381,0,0,0-.417.972,1.369,1.369,0,0,0,2.352.961Z" transform="translate(-34.065 -8.47)" fill="#fff"/>
      <path id="Path_4" data-name="Path 4" d="M2.656,40.819a9.518,9.518,0,0,0,0,11.142A30.088,30.088,0,0,0,27.729,65.083,30.1,30.1,0,0,0,52.8,51.968a9.523,9.523,0,0,0,0-11.145A30.081,30.081,0,0,0,27.729,27.705,30.125,30.125,0,0,0,2.656,40.82Zm9.619,5.573A15.729,15.729,0,0,1,27.729,30.438a15.96,15.96,0,0,1,0,31.91A15.733,15.733,0,0,1,12.275,46.392Zm38.295-4v0a6.743,6.743,0,0,1,0,7.985,28.92,28.92,0,0,1-9.411,8.568,18.962,18.962,0,0,0,0-25.127A28.916,28.916,0,0,1,50.569,42.4ZM14.3,33.828v0a18.954,18.954,0,0,0,0,25.12,28.9,28.9,0,0,1-9.418-8.568,6.727,6.727,0,0,1,0-7.983A28.969,28.969,0,0,1,14.3,33.839Z" transform="translate(-0.855 -14.71)" fill="#fff"/>
      <path id="Path_5" data-name="Path 5" d="M43.216,46.91A8.2,8.2,0,1,0,49,49.313a8.195,8.195,0,0,0-5.784-2.4Zm0,13.638A5.453,5.453,0,1,1,48.668,55.1a5.452,5.452,0,0,1-5.451,5.453Z" transform="translate(-16.343 -23.414)" fill="#fff"/>
    </g>
  </g>
</svg>
