<svg xmlns="http://www.w3.org/2000/svg" width="52.858" height="52.941" viewBox="0 0 52.858 52.941">
  <g id="Group_13" data-name="Group 13" transform="translate(-22.813 -24.809)">
    <path id="Path_10" data-name="Path 10" d="M74.43,43.26A1.27,1.27,0,1,0,72,44,24,24,0,1,1,56.34,28.4a1.263,1.263,0,0,0,.79-2.4A26.47,26.47,0,1,0,49.2,77.75h0A26.48,26.48,0,0,0,74.43,43.26Z" fill="#fff"/>
    <path id="Path_11" data-name="Path 11" d="M52.11,34.28A1.26,1.26,0,0,0,51,32.91a17.682,17.682,0,0,0-1.78-.09A18.46,18.46,0,1,0,67.65,51.28a12.669,12.669,0,0,0-.09-1.85,1.251,1.251,0,0,0-2.49.25c.05.53.08,1.07.08,1.6a16,16,0,1,1-16-16,10.131,10.131,0,0,1,1.54.08,1.26,1.26,0,0,0,1.42-1.08Z" fill="#fff"/>
    <path id="Path_12" data-name="Path 12" d="M49.2,43.28a6.74,6.74,0,0,1,.77,0,1.26,1.26,0,0,0,.24-2.5h-1A10.51,10.51,0,1,0,59.7,51.28a7.739,7.739,0,0,0-.05-1.08,1.26,1.26,0,0,0-2.5.25,7.551,7.551,0,0,1,.05.83,8,8,0,1,1-8-8Z" fill="#fff"/>
    <path id="Path_13" data-name="Path 13" d="M57.32,36.89V41.3L50,48.58a2.73,2.73,0,1,0,1.82,2.57,2.64,2.64,0,0,0-.1-.74l7.71-7.71a1.26,1.26,0,0,0,.37-.89v-4.4l5.28-5.28V34.2a1.25,1.25,0,0,0,1.25,1.25h2l-5,5a1.252,1.252,0,1,0,1.77,1.77l7.15-7.15a1.25,1.25,0,0,0-.88-2.14H67.61V29.1a1.25,1.25,0,0,0-2.14-.88L57.69,36a1.26,1.26,0,0,0-.37.89Z" fill="#fff"/>
  </g>
</svg>
