<svg xmlns="http://www.w3.org/2000/svg" width="14.559" height="14.56" viewBox="0 0 14.559 14.56">
  <g id="link-chain-hyperlink-svgrepo-com" transform="translate(-8.133 -8.13)">
    <g id="Group_16019" data-name="Group 16019" transform="translate(13.47 8.13)">
      <path id="Path_47469" data-name="Path 47469" d="M28.648,18.244A3.883,3.883,0,0,1,25.884,17.1a.864.864,0,1,1,1.222-1.222,2.18,2.18,0,0,0,3.083,0l2.3-2.3a2.18,2.18,0,1,0-3.083-3.083l-.984.984A.864.864,0,0,1,27.2,10.257l.985-.984A3.908,3.908,0,1,1,33.711,14.8l-2.3,2.3A3.883,3.883,0,0,1,28.648,18.244Z" transform="translate(-25.631 -8.13)" fill="#fff"/>
    </g>
    <g id="Group_16020" data-name="Group 16020" transform="translate(8.133 12.578)">
      <path id="Path_47470" data-name="Path 47470" d="M12.039,32.825a3.908,3.908,0,0,1-2.763-6.671l2.3-2.3a3.913,3.913,0,0,1,5.527,0,.864.864,0,0,1-1.222,1.222,2.182,2.182,0,0,0-3.083,0l-2.3,2.3a2.18,2.18,0,0,0,3.083,3.083l.984-.984A.864.864,0,0,1,15.787,30.7l-.984.984A3.883,3.883,0,0,1,12.039,32.825Z" transform="translate(-8.133 -22.712)" fill="#fff"/>
    </g>
  </g>
</svg>
