<svg width="18" height="16" viewBox="0 0 18 16" fill="none" xmlns="http://www.w3.org/2000/svg">
<path id="Vector" d="M4.06768 1.77857C4.06745 2.25004 3.87928 2.7021 3.54458 3.03532C3.20987 3.36853 2.75605 3.55559 2.28295 3.55536C1.80984 3.55512 1.35621 3.36761 1.02184 3.03406C0.687476 2.70051 0.499764 2.24826 0.5 1.77679C0.500237 1.30532 0.688403 0.853255 1.02311 0.520042C1.35781 0.186829 1.81163 -0.000235512 2.28473 2.22531e-07C2.75784 0.000235957 3.21147 0.187753 3.54584 0.521299C3.8802 0.854845 4.06792 1.3071 4.06768 1.77857ZM4.1212 4.87173H0.553515V16H4.1212V4.87173ZM9.75813 4.87173H6.20829V16H9.72246V10.1603C9.72246 6.90717 13.9769 6.60497 13.9769 10.1603V16H17.5V8.9515C17.5 3.46736 11.203 3.6718 9.72246 6.36498L9.75813 4.87173Z" fill="white"/>
</svg>
