<?xml version="1.0" encoding="UTF-8"?><svg id="Layer_1" xmlns="http://www.w3.org/2000/svg" viewBox="0 0 700 700"><defs><style>.cls-1{fill:#3cbb54;stroke-width:0px;}</style></defs><path class="cls-1" d="M326.28,162.66v-35.4c0-1.78,1.44-3.22,3.22-3.22h12.03c2.85,0,5.34.6,7.47,1.8s3.79,2.82,4.97,4.85,1.77,4.31,1.77,6.83-.59,4.8-1.77,6.83-2.84,3.64-4.97,4.82c-2.13,1.18-4.63,1.77-7.47,1.77h-10.25v-5.73h9.21c2.68,0,4.84-.68,6.47-2.04,1.63-1.36,2.44-3.24,2.44-5.64,0-2.56-.81-4.49-2.44-5.8-1.63-1.3-3.78-1.95-6.47-1.95h-9.27l1.16-1.4v34.28c0,1.62-1.31,2.93-2.93,2.93h-.25c-1.62,0-2.93-1.31-2.93-2.93ZM348.62,164.09l-8.86-15.77h6.71l7.25,12.9c1.1,1.95-.31,4.36-2.55,4.36h0c-1.06,0-2.03-.57-2.55-1.49Z"/><path class="cls-1" d="M360.75,144.84c0-3.09.54-5.94,1.62-8.54,1.08-2.6,2.59-4.86,4.54-6.77,1.95-1.91,4.24-3.4,6.86-4.45,2.62-1.06,5.48-1.59,8.57-1.59s5.88.53,8.48,1.59c2.6,1.06,4.87,2.54,6.8,4.45,1.93,1.91,3.44,4.17,4.51,6.77,1.08,2.6,1.62,5.45,1.62,8.54s-.54,5.88-1.62,8.48c-1.08,2.6-2.58,4.87-4.51,6.8s-4.2,3.43-6.8,4.48c-2.6,1.06-5.43,1.59-8.48,1.59s-5.95-.53-8.57-1.59c-2.62-1.06-4.91-2.55-6.86-4.48-1.95-1.93-3.47-4.2-4.54-6.8s-1.62-5.43-1.62-8.48ZM366.97,144.84c0,2.97.67,5.62,2.01,7.96,1.34,2.34,3.17,4.18,5.49,5.52s4.94,2.01,7.87,2.01,5.53-.67,7.81-2.01c2.28-1.34,4.08-3.18,5.4-5.52,1.32-2.34,1.98-4.99,1.98-7.96s-.66-5.67-1.98-7.99c-1.32-2.32-3.12-4.15-5.4-5.49-2.28-1.34-4.88-2.01-7.81-2.01s-5.55.67-7.87,2.01c-2.32,1.34-4.15,3.17-5.49,5.49-1.34,2.32-2.01,4.98-2.01,7.99Z"/><path class="cls-1" d="M408.46,161.89l6.41-34.93c.31-1.69,1.78-2.92,3.5-2.92h0c1.48,0,2.81.92,3.33,2.31l10.54,28.01h.18l10.54-28.01c.52-1.39,1.85-2.31,3.33-2.31h0c1.72,0,3.19,1.23,3.5,2.92l6.41,34.93c.35,1.92-1.12,3.7-3.08,3.7h0c-1.53,0-2.83-1.1-3.09-2.61l-2.91-17.16c-.49-2.85-.9-5.66-1.22-8.45-.33-2.78-.53-5.58-.61-8.39h1.52c-.73,3.38-1.49,6.34-2.29,8.91-.79,2.56-1.7,5.21-2.71,7.93l-6.38,17.06c-.46,1.22-1.63,2.04-2.93,2.04h-.35c-1.31,0-2.48-.81-2.93-2.04l-6.38-17.06c-1.02-2.77-1.92-5.42-2.71-7.96-.79-2.54-1.55-5.5-2.29-8.88h1.53c-.08,2.81-.29,5.6-.61,8.39-.33,2.79-.73,5.6-1.22,8.45l-2.91,17.16c-.26,1.51-1.56,2.61-3.09,2.61h0c-1.96,0-3.43-1.77-3.08-3.7Z"/><path class="cls-1" d="M461.7,161.67l12.03-33.72c.84-2.34,3.05-3.91,5.54-3.91h0c2.49,0,4.71,1.56,5.54,3.91l12.03,33.72c.68,1.91-.73,3.91-2.76,3.91h0c-1.24,0-2.34-.78-2.76-1.95l-12.6-35.33h1.1l-12.6,35.33c-.42,1.17-1.52,1.94-2.76,1.94h0c-2.03,0-3.44-2.01-2.76-3.91ZM468.11,150.15h22.39v5.73h-22.39v-5.73Z"/><path class="cls-1" d="M533.13,164.23l-25.8-33.48,3.42-.98v32.76c0,1.68-1.37,3.05-3.05,3.05h0c-1.68,0-3.05-1.37-3.05-3.05v-35.02c0-1.92,1.56-3.48,3.48-3.48h0c1.08,0,2.09.5,2.75,1.35l24.88,32.26h-2.5v-30.56c0-1.68,1.37-3.05,3.05-3.05h0c1.68,0,3.05,1.37,3.05,3.05v35.02c0,1.92-1.56,3.48-3.48,3.48h0c-1.08,0-2.1-.5-2.75-1.35Z"/><path class="cls-1" d="M552.78,165.58h0c-1.68,0-3.05-1.37-3.05-3.05v-35.44c0-1.68,1.37-3.05,3.05-3.05h0c1.68,0,3.05,1.37,3.05,3.05v35.44c0,1.68-1.37,3.05-3.05,3.05Z"/><path class="cls-1" d="M563.63,161.67l12.03-33.72c.84-2.34,3.05-3.91,5.54-3.91h0c2.49,0,4.71,1.56,5.54,3.91l12.03,33.72c.68,1.91-.73,3.91-2.76,3.91h0c-1.24,0-2.34-.78-2.76-1.95l-12.6-35.33h1.1l-12.6,35.33c-.42,1.17-1.52,1.94-2.76,1.94h0c-2.03,0-3.44-2.01-2.76-3.91ZM570.04,150.15h22.39v5.73h-22.39v-5.73Z"/><path class="cls-1" d="M338.28,100.24h-10.67c-1.4,0-2.53-1.13-2.53-2.53v-21.59c0-.99.8-1.79,1.79-1.79h.23c.99,0,1.79.8,1.79,1.79v21.07l-.46-.53h9.85c.99,0,1.79.8,1.79,1.79h0c0,.99-.8,1.79-1.79,1.79Z"/><path class="cls-1" d="M346.27,100.24h-.23c-.99,0-1.79-.8-1.79-1.79v-22.33c0-.99.8-1.79,1.79-1.79h.23c.99,0,1.79.8,1.79,1.79v22.33c0,.99-.8,1.79-1.79,1.79Z"/><path class="cls-1" d="M360.04,97.81l-7.5-21.03c-.42-1.19.46-2.44,1.72-2.44h0c.77,0,1.46.49,1.72,1.21l7.86,22.03h-.68l7.86-22.03c.26-.73.95-1.21,1.72-1.21h0c1.26,0,2.15,1.25,1.72,2.44l-7.5,21.03c-.52,1.46-1.91,2.44-3.46,2.44h0c-1.55,0-2.93-.98-3.46-2.44Z"/><path class="cls-1" d="M380.96,100.24h-.23c-.99,0-1.79-.8-1.79-1.79v-22.33c0-.99.8-1.79,1.79-1.79h.23c.99,0,1.79.8,1.79,1.79v22.33c0,.99-.8,1.79-1.79,1.79Z"/><path class="cls-1" d="M406.98,99.4l-16.09-20.88,2.13-.61v20.43c0,1.05-.85,1.9-1.9,1.9h0c-1.05,0-1.9-.85-1.9-1.9v-21.84c0-1.2.97-2.17,2.17-2.17h0c.67,0,1.31.31,1.72.84l15.52,20.12h-1.56v-19.06c0-1.05.85-1.9,1.9-1.9h0c1.05,0,1.9.85,1.9,1.9v21.84c0,1.2-.97,2.17-2.17,2.17h0c-.67,0-1.31-.31-1.72-.84Z"/><path class="cls-1" d="M428.32,100.62c-2.61,0-4.9-.58-6.87-1.73-1.97-1.15-3.49-2.74-4.58-4.76-1.09-2.02-1.64-4.29-1.64-6.83,0-1.93.33-3.7.99-5.33.66-1.62,1.58-3.03,2.76-4.22,1.18-1.19,2.56-2.12,4.15-2.78,1.58-.66,3.32-.99,5.19-.99,2.94,0,5.35.6,7.23,1.81,1.1.71,2.08,1.56,2.95,2.55.9,1.04.45,2.66-.87,3.05h0c-.71.21-1.47-.03-1.96-.59-.95-1.09-1.95-1.86-3-2.31-1.33-.57-2.78-.86-4.36-.86-1.75,0-3.32.42-4.7,1.26-1.38.84-2.48,1.98-3.29,3.42-.81,1.45-1.22,3.11-1.22,4.98s.41,3.51,1.22,4.96c.81,1.46,1.91,2.61,3.29,3.44,1.38.84,2.95,1.26,4.7,1.26s3.2-.37,4.58-1.12c1.38-.75,2.48-1.77,3.29-3.06.81-1.29,1.22-2.76,1.22-4.41l.57,2.21h-8.1c-.99,0-1.79-.8-1.79-1.79h0c0-.99.8-1.79,1.79-1.79h10.92c.08.25.13.55.17.88.04.33.06.65.06.95,0,1.62-.32,3.15-.95,4.56-.63,1.42-1.53,2.68-2.68,3.77-1.15,1.09-2.5,1.94-4.03,2.55-1.53.61-3.21.91-5.04.91Z"/><path class="cls-1" d="M468.11,100.24h-10.94c-1.25,0-2.26-1.01-2.26-2.26v-21.86c0-.99.8-1.79,1.79-1.79h.23c.99,0,1.79.8,1.79,1.79v21.07l-.46-.53h9.85c.99,0,1.79.8,1.79,1.79h0c0,.99-.8,1.79-1.79,1.79Z"/><path class="cls-1" d="M472.48,97.8l7.5-21.03c.52-1.46,1.91-2.44,3.46-2.44h0c1.55,0,2.93.98,3.46,2.44l7.5,21.03c.42,1.19-.46,2.44-1.72,2.44h0c-.77,0-1.46-.49-1.72-1.21l-7.86-22.03h.68l-7.86,22.03c-.26.73-.95,1.21-1.72,1.21h0c-1.26,0-2.15-1.25-1.72-2.44ZM476.48,90.62h13.96v3.58h-13.96v-3.58Z"/><path class="cls-1" d="M499.27,97.54v-20.5c0-1.49,1.21-2.7,2.7-2.7h5.9c1.75,0,3.23.25,4.43.74,1.2.49,2.12,1.26,2.76,2.28.63,1.03.95,2.33.95,3.9,0,1.32-.33,2.49-.99,3.5-.66,1.01-1.53,1.8-2.61,2.36-1.08.56-2.24.84-3.48.84l.27-1.98c1.55,0,2.9.27,4.05.82,1.15.55,2.06,1.34,2.72,2.38.66,1.04.99,2.31.99,3.8,0,2.36-.73,4.16-2.19,5.4-1.46,1.24-3.54,1.86-6.26,1.86h-6.54c-1.49,0-2.7-1.21-2.7-2.7ZM503.07,76.73v20.85l-1.52-.99h7.08c1.42,0,2.52-.37,3.29-1.12.77-.75,1.16-1.7,1.16-2.87,0-1.32-.37-2.32-1.12-3.01-.75-.69-1.83-1.03-3.25-1.03h-7.15v-3.5h6.43c1.34,0,2.37-.3,3.08-.89.71-.6,1.07-1.46,1.07-2.61,0-1.04-.36-1.9-1.08-2.57-.72-.67-1.74-1.01-3.06-1.01h-6.28l1.37-1.26Z"/><path class="cls-1" d="M261.82,169.76c-19.15-27.86-45.8-50.53-73.68-68.59C123.66,59.37,52.6,42.19,52.6,42.19c0,0-8.32,24.6-17.98,58.97-.06.21-.12.43-.18.65-13.31,47.47-29.07,113.26-29.07,158.7,0,32.35,10.84,62.23,29.07,86.2,6.9,9.07,14.85,17.3,23.69,24.49h0c24.57,20.02,55.9,32.04,89.97,32.04s65.39-12.01,89.95-32.03c8.87-7.22,16.86-15.5,23.78-24.62,18.15-23.95,28.93-53.77,28.93-86.07,0-34.98-11.28-65.08-28.93-90.76ZM259.29,213.74c-1.53,1.63-3.35,3.22-5.34,4.1h-.07c-3.32,1.47-5.86,2.96-6.12,7.17-.13,2.12-1.4,4.4-2.74,6.12-5.31,6.9-10.78,13.68-16.35,20.39-2.67,3.22-5.76,6.22-5.67,10.75.1,4.76-.1,9.64.91,14.27,3.49,16.35,4.1,32.64,1.17,49.15-.62,3.49-.81,6.97-3.52,9.48-6.97,6.55-13.84,12.12-27.39,6.94-4.57-1.76-9.03-2.48-13.4-2.32-6.48.24-12.77,2.42-18.94,6.03-5.37,3.16-11.66,5.86-17.62,3.55-5.76-2.25-11.4-5.93-15.89-10.23-2.98-2.84-5.83-5.84-8.63-8.89-4.99-5.43-9.84-11.03-15.08-16.22-3.22-3.22-7.43-5.99-11.69-7.52-6.9-2.48-14.23-3.65-21.37-5.5-8.92-2.31-17.43-5.37-23.35-13.13-.55-.75-2.21-.55-3.19-1.07-3.32-1.76-6.71-3.49-9.8-5.63-.75-.52-.88-2.87-.39-3.94.39-.85,2.25-1.56,3.35-1.47,2.35.26,4.62,1.24,7,1.6,1.21.16,3.26,0,3.65-.68,3.94-7.04,10.03-7.1,16.45-4.98,9.02,2.96,17.91,6.32,26.81,9.61,3.71,1.37,5.47.39,5.37-3.55-.13-4.43-2.02-8.27-5.54-10.72-8.66-6.03-17.43-12.02-26.48-17.43-8.89-5.34-17.72-10.39-18.96-22.18-.07-.68-1.21-1.6-2.02-1.86-4.95-1.6-7.46-5.57-9.48-9.84-.37-.78-.54-1.54-.54-2.23,0-2.43,2.08-4.08,4.97-3.24,3.09.91,5.83,3.09,8.83,4.43,1.79.78,3.88,1.66,5.7,1.43,6.51-.85,12.96-1.04,18.83,2.31,9.41,5.34,16.74,12.96,24.4,20.68,13.55,13.65,18.86,4.79,3.19-16.35-3.39-2.87-45.73-39.12-25.24-56.9-2.96-4.69-6.09-8.92-8.4-13.55-.88-1.76-.72-5.18.46-6.45,1.24-1.3,4.56-1.76,6.45-1.11,2.8.98,5.76,2.8,7.52,5.11,2.7,3.52,3.65,8.76,6.87,11.43,3.39,2.8,8.92,2.87,12.87,5.21,10,5.96,13.58,16.02,16.09,26.74.86,3.67,1.52,7.61,2.74,11.16.67,1.96,1.52,3.81,2.67,5.42,4.01,5.63,10.19,9.74,15.5,14.43,1.43,1.27,2.8,1.17,3.84-.85,2.35-4.56,3.09-9.22.59-13.87-1.73-3.16-3.52-6.38-5.83-9.12-5.9-7.04-6.9-18.89-4.89-27.42.89-3.76.64-7.98-.75-12.67-.36-1.21.49-3.94,1.66-4.79,1.14-.85,4.04-.88,5.02,0,3.09,2.83,3.45,5.76,6.22,8.96.91,1.07,9.74,4.79,13.26,6.71,6.38,3.45,10.91,12.6,12.28,19.35-.14,25.11,5.26,38.09,11.51,44.46,7.88,8.02,17.12,5.53,18.32,3.59,3.39-5.47,6.81-10.94,10.26-16.35,6.16-9.61,14.4-15.28,26.38-14.36,4.53.36,9.35.72,12.47-4.01.59-.88,2.02-1.34,3.16-1.66,3.78-1.04,7,.13,9.28,3.19.82,1.1,1.16,2.18,1.16,3.22,0,1.86-1.09,3.59-2.53,5.12Z"/><path class="cls-1" d="M460.51,242.96c-3.13-6.55-7.98-11.76-14.66-15.67-6.68-3.88-15.76-5.83-27.33-5.83s-17.1,1.27-25.34,3.84c-8.21,2.57-15.99,6.29-23.32,11.17-4.72,3.16-9.22,6.77-13.48,10.85l-2.87-11.69c-1.56-6.35-7.23-10.81-13.78-10.81h0c-7.85,0-14.17,6.35-14.17,14.17v131.75c0,9.18,7.46,16.64,16.64,16.64h0c9.18,0,16.64-7.46,16.64-16.64v-92.43c2.31-2.87,4.95-5.6,7.98-8.18,5.76-4.89,12.34-8.76,19.67-11.66,7.33-2.87,14.56-4.33,21.66-4.33s13.26,1.99,18.5,5.99c5.21,4.01,7.82,11.79,7.82,23.32v87.29c0,9.18,7.46,16.64,16.64,16.64h0c9.18,0,16.64-7.46,16.64-16.64v-80.29c0-8.66-.46-17.1-1.34-25.31s-2.9-15.6-5.99-22.15l.07-.03Z"/><path class="cls-1" d="M620.79,232.11c-11.99-7.1-25.99-10.65-41.98-10.65s-29.64,3.55-41.66,10.65c-11.99,7.1-21.33,17-27.98,29.64-6.68,12.67-10,27.55-10,44.65s3.32,31.66,10,44.33c6.68,12.67,15.99,22.51,27.98,29.48,11.99,7,25.86,10.49,41.66,10.49s32.93-3.49,44.82-10.49c7.46-4.4,14.1-10.19,19.87-17.36,5.67-7.07,3.81-17.56-3.88-22.38h0c-6.32-3.97-14.62-2.8-19.54,2.83-3.39,3.88-7.04,7.36-10.94,10.42-7.1,5.57-17.23,8.34-30.32,8.34s-25.34-4.4-33.32-13.16c-7.59-8.31-11.56-19.35-11.95-33.16h124.58c.23-1.34.39-2.83.49-4.49.1-1.66.16-3.29.16-4.82,0-17.1-3.32-31.98-10-44.65-6.68-12.67-15.99-22.54-27.98-29.64v-.03ZM545.81,261.62c8.21-8.76,19.22-13.16,32.99-13.16s27.1,5.44,34.65,16.32c4.43,6.42,7.56,13.84,9.38,22.31h-88.75c1.4-10.13,5.31-18.63,11.73-25.5v.03Z"/><path class="cls-1" d="M144.84,555.25c-9.06-5.42-21.59-10.15-37.61-14.15-15.83-3.8-26.45-8.3-31.9-13.45-5.42-5.14-8.16-11.24-8.16-18.31s2.91-14.48,8.72-18.87c5.82-4.39,14.26-6.57,25.3-6.57s14.06,1.57,20.44,4.73c3.72,1.82,7.35,4.36,10.9,7.58,4.89,4.42,12.13,5.06,17.67,1.51h0c8-5.14,8.95-16.41,2.01-22.9-4.08-3.8-8.5-7.1-13.28-9.93-9.93-5.82-22.51-8.72-37.75-8.72s-23.82,2.24-33.19,6.71c-9.34,4.47-16.5,10.68-21.45,18.59-4.95,7.91-7.44,17.22-7.44,27.88s1.62,16.55,4.87,23.88c3.24,7.35,9,13.84,17.31,19.46,8.3,5.62,19.88,10.35,34.75,14.15,11.83,2.85,20.97,6.01,27.46,9.45,6.49,3.44,11.02,7.16,13.59,11.16,2.57,4,3.86,8.67,3.86,14.01,0,8.98-2.99,16.02-9,21.17-6.01,5.14-14.82,7.72-26.45,7.72s-22.03-2.66-30.03-8c-5.37-3.58-10.46-8.67-15.24-15.27-4.25-5.9-12.22-7.69-18.57-4.11h0c-7.02,3.97-9.37,13.03-5.09,19.85,3.83,6.07,8.11,11.18,12.83,15.41,7.83,6.96,16.44,11.97,25.89,15.01,9.42,3.05,19.21,4.59,29.33,4.59s24.61-2.52,34.31-7.58c9.73-5.06,17.25-11.77,22.59-20.16,5.34-8.39,8-17.84,8-28.32s-1.85-19.49-5.56-27.04c-3.72-7.52-10.09-14.01-19.15-19.46h.03Z"/><path class="cls-1" d="M321.75,485.6c7.44,0,13.45-6.01,13.45-13.45h0c0-7.44-6.01-13.45-13.45-13.45h-126.41c-7.44,0-13.45,6.01-13.45,13.45h0c0,7.44,6.01,13.45,13.45,13.45h47.48v153.59c0,7.88,6.4,14.29,14.29,14.29h0c7.88,0,14.29-6.4,14.29-14.29v-153.59h50.36Z"/><path class="cls-1" d="M505.25,484.45c-9.06-8.98-19.68-15.91-31.87-20.89-12.22-4.95-25.44-7.44-39.76-7.44s-27.9,2.49-40.21,7.44c-12.3,4.95-23.01,11.91-32.18,20.89-9.14,8.98-16.27,19.54-21.31,31.73-5.06,12.19-7.58,25.56-7.58,40.04s2.52,27.57,7.58,39.76c1.51,3.66,3.22,7.19,5.12,10.57l-25.39,22.45c-5.56,4.92-6.1,13.42-1.17,18.99,4.92,5.56,13.42,6.1,18.98,1.17l23.91-21.14c9.12,9,19.8,15.97,32.04,20.89,7.58,3.05,15.57,5.17,23.99,6.35,5.23.73,10.65,1.09,16.22,1.09s10.37-.34,15.35-1.01c8.56-1.15,16.69-3.3,24.41-6.43,12.19-4.95,22.84-11.97,31.87-21.03,9.06-9.06,16.11-19.68,21.17-31.9,5.06-12.19,7.58-25.44,7.58-39.76s-2.52-27.85-7.58-40.04c-5.06-12.19-12.11-22.79-21.17-31.73h0ZM495.52,593.55c-6.21,10.96-14.62,19.6-25.3,25.89-10.68,6.29-22.87,9.45-36.6,9.45s-26.03-3.16-36.91-9.45c-5.12-2.96-9.73-6.43-13.84-10.43-4.61-4.5-8.58-9.65-11.91-15.46-1.29-2.24-2.43-4.5-3.44-6.85-4-9.23-5.98-19.38-5.98-30.48s3.16-26.59,9.42-37.47c6.29-10.88,14.87-19.43,25.75-25.75,10.88-6.29,23.18-9.45,36.91-9.45s25.92,3.16,36.6,9.45c10.68,6.29,19.12,14.87,25.3,25.75,6.21,10.88,9.31,23.35,9.31,37.47s-3.1,26.37-9.31,37.33h0Z"/><path class="cls-1" d="M686.35,491.3c-5.54-9.93-13.25-17.84-23.18-23.74-9.93-5.9-21.56-8.86-34.89-8.86h-68.92v180.48c0,7.88,6.4,14.29,14.29,14.29h0c7.88,0,14.29-6.4,14.29-14.29v-48.62h40.04c13.34,0,25.02-2.91,35.03-8.72,10.01-5.82,17.78-13.73,23.32-23.74,5.54-10.01,8.3-21.11,8.3-33.33s-2.77-23.54-8.3-33.47h.03ZM653.44,553.37c-7.63,6.88-17.73,10.29-30.31,10.29h-35.17v-78.09h35.45c12.58,0,22.65,3.3,30.17,9.87,7.52,6.57,11.3,16.36,11.3,29.33s-3.83,21.73-11.44,28.6Z"/><g id="_Radial_Repeat_"><rect class="cls-1" x="405.95" y="572.29" width="18.93" height="23.3" rx="8.65" ry="8.65" transform="translate(490.7 1296.6) rotate(-150.6)"/><circle class="cls-1" cx="405.54" cy="601.46" r="6.79"/><path class="cls-1" d="M408.46,591.67c-1.07-.01-2.09-.62-2.58-1.64l-6.12-12.81c-.69-1.44-.08-3.16,1.36-3.85,1.44-.69,3.16-.08,3.85,1.36l6.12,12.81c.69,1.44.08,3.16-1.36,3.85-.41.2-.85.29-1.27.28Z"/><path class="cls-1" d="M414.82,595.26c-1.45-.02-2.69-1.12-2.84-2.6-.16-1.59,1-3,2.59-3.16l14.12-1.4c1.59-.16,3,1,3.16,2.59.16,1.59-1,3-2.59,3.16l-14.12,1.4c-.11.01-.21.02-.32.01Z"/><path class="cls-1" d="M416.09,577.82c-.49,0-.99-.14-1.45-.41-1.37-.82-1.82-2.59-1-3.96l6.05-10.13c.82-1.37,2.59-1.82,3.96-1,1.37.82,1.82,2.59,1,3.96l-6.05,10.13c-.55.91-1.52,1.42-2.51,1.41Z"/><path class="cls-1" d="M422.37,581.56c-.49,0-.99-.14-1.45-.41-1.37-.82-1.82-2.59-1-3.96l6.05-10.13c.82-1.37,2.59-1.82,3.96-1,1.37.82,1.82,2.59,1,3.96l-6.05,10.13c-.55.91-1.52,1.42-2.51,1.41Z"/></g><g id="_Radial_Repeat_-2"><rect class="cls-1" x="392.95" y="536.39" width="18.93" height="23.3" rx="8.65" ry="8.65" transform="translate(-228.47 801.55) rotate(-75.6)"/><circle class="cls-1" cx="382.94" cy="543.03" r="6.79"/><path class="cls-1" d="M395.91,545.49c-.8,0-1.6-.35-2.17-1.01-1.04-1.21-.89-3.03.32-4.07l10.79-9.22c1.21-1.04,3.03-.89,4.07.32,1.04,1.21.89,3.03-.32,4.07l-10.79,9.22c-.55.47-1.23.7-1.9.69Z"/><path class="cls-1" d="M399.11,565.85c-1.16-.01-2.24-.72-2.67-1.87l-5.01-13.28c-.56-1.49.19-3.16,1.68-3.72,1.49-.56,3.16.19,3.72,1.68l5.01,13.28c.56,1.49-.19,3.16-1.68,3.72-.35.13-.7.19-1.05.19Z"/><path class="cls-1" d="M422.38,552.49c-.25,0-.51-.04-.76-.11l-11.35-3.22c-1.53-.44-2.42-2.03-1.99-3.57.44-1.53,2.03-2.42,3.57-1.99l11.35,3.22c1.53.44,2.42,2.03,1.99,3.57-.36,1.28-1.54,2.11-2.81,2.1Z"/><path class="cls-1" d="M420.38,559.52c-.25,0-.51-.04-.76-.11l-11.35-3.22c-1.53-.44-2.42-2.03-1.99-3.57.44-1.53,2.03-2.42,3.57-1.99l11.35,3.22c1.53.44,2.42,2.03,1.99,3.57-.36,1.28-1.54,2.11-2.81,2.1Z"/></g><g id="_Radial_Repeat_-3"><rect class="cls-1" x="424.05" y="512.37" width="18.93" height="23.3" rx="8.65" ry="8.65" transform="translate(-5.49 4.59) rotate(-.6)"/><path class="cls-1" d="M448.76,527.28c-.55,0-1.11-.17-1.6-.51l-11.7-8.03c-1.31-.9-1.65-2.7-.75-4.01.9-1.31,2.7-1.65,4.01-.75l11.7,8.03c1.31.9,1.65,2.7.75,4.01-.57.82-1.48,1.26-2.41,1.25Z"/><path class="cls-1" d="M418.22,527.6c-.89,0-1.76-.43-2.32-1.2-.93-1.3-.63-3.1.66-4.03l11.53-8.28c1.3-.93,3.1-.63,4.03.66.93,1.3.63,3.1-.66,4.03l-11.53,8.28c-.52.37-1.12.55-1.71.54Z"/><path class="cls-1" d="M437.06,546.75s0,0-.01,0c-1.59-.02-2.87-1.34-2.84-2.93l.18-11.8c.02-1.59,1.33-2.86,2.92-2.84,0,0,0,0,.01,0,1.59.02,2.87,1.34,2.84,2.93l-.18,11.8c-.02,1.59-1.33,2.86-2.92,2.84Z"/><path class="cls-1" d="M429.75,546.64s0,0-.01,0c-1.59-.02-2.87-1.34-2.84-2.93l.18-11.8c.02-1.59,1.33-2.86,2.92-2.84,0,0,0,0,.01,0,1.59.02,2.87,1.34,2.84,2.93l-.18,11.8c-.02,1.59-1.33,2.86-2.92,2.84Z"/></g><g id="_Radial_Repeat_-4"><rect class="cls-1" x="454.87" y="535.86" width="18.93" height="23.3" rx="8.65" ry="8.65" transform="translate(866.78 -46.98) rotate(74.4)"/><circle class="cls-1" cx="483.7" cy="542.1" r="6.79"/><path class="cls-1" d="M467.9,565.25c-.31,0-.62-.06-.93-.17-1.5-.53-2.29-2.18-1.76-3.68l4.73-13.38c.53-1.5,2.18-2.29,3.68-1.76,1.5.53,2.29,2.18,1.76,3.68l-4.73,13.38c-.42,1.2-1.55,1.94-2.75,1.93Z"/><path class="cls-1" d="M470.66,544.83c-.63,0-1.27-.22-1.8-.65l-10.98-9c-1.23-1.01-1.41-2.83-.4-4.06s2.83-1.41,4.06-.4l10.98,9c1.23,1.01,1.41,2.83.4,4.06-.58.7-1.42,1.07-2.27,1.06Z"/><path class="cls-1" d="M445.95,558.59c-1.28-.01-2.44-.88-2.77-2.18-.39-1.55.55-3.12,2.09-3.51l11.44-2.88c1.55-.39,3.12.55,3.51,2.09.39,1.55-.55,3.12-2.09,3.51l-11.44,2.88c-.25.06-.49.09-.74.09Z"/><path class="cls-1" d="M444.16,551.51c-1.28-.01-2.44-.88-2.77-2.18-.39-1.55.55-3.12,2.09-3.51l11.44-2.88c1.55-.39,3.12.55,3.51,2.09.39,1.55-.55,3.12-2.09,3.51l-11.44,2.88c-.25.06-.49.09-.74.09Z"/></g><g id="_Radial_Repeat_-5"><rect class="cls-1" x="442.48" y="572.07" width="18.93" height="23.3" rx="8.65" ry="8.65" transform="translate(1138.11 856.05) rotate(149.4)"/><circle class="cls-1" cx="462.18" cy="601.02" r="6.79"/><path class="cls-1" d="M452.65,595.02c-.07,0-.13,0-.2,0l-14.15-1.11c-1.59-.12-2.78-1.51-2.65-3.1.12-1.59,1.51-2.78,3.1-2.65l14.15,1.11c1.59.12,2.78,1.51,2.65,3.1-.12,1.52-1.4,2.68-2.91,2.66Z"/><path class="cls-1" d="M458.94,591.3c-.39,0-.78-.09-1.16-.26-1.45-.66-2.1-2.37-1.44-3.82l5.85-12.93c.66-1.45,2.37-2.1,3.82-1.44,1.45.66,2.1,2.37,1.44,3.82l-5.85,12.93c-.49,1.08-1.55,1.71-2.66,1.7Z"/><path class="cls-1" d="M444.5,581.54c-1-.01-1.97-.54-2.49-1.48l-5.75-10.31c-.78-1.39-.28-3.15,1.12-3.93,1.39-.78,3.15-.28,3.93,1.12l5.75,10.31c.78,1.39.28,3.15-1.12,3.93-.45.25-.95.37-1.43.37Z"/><path class="cls-1" d="M450.89,577.98c-1-.01-1.97-.54-2.49-1.48l-5.75-10.31c-.78-1.39-.28-3.15,1.12-3.93,1.39-.78,3.15-.28,3.93,1.12l5.75,10.31c.78,1.39.28,3.15-1.12,3.93-.45.25-.95.37-1.43.37Z"/></g><circle class="cls-1" cx="433.52" cy="503.91" r="6.79"/></svg>