<svg width="92" height="63" viewBox="0 0 92 63" fill="none" xmlns="http://www.w3.org/2000/svg">
<path d="M6.82959 32.1803V52.4017C6.82959 55.9132 8.72808 57.67 12.5273 57.67C16.8406 57.67 20.1981 57.5599 22.5998 57.3376L22.4153 53.7645H13.5908C12.7822 53.7645 12.2174 53.6103 11.8988 53.3043C11.5802 52.9983 11.4198 52.4523 11.4198 51.6642V32.1781H6.8252L6.82959 32.1803Z" fill="#F58220"/>
<path d="M34.9491 40V52.7449C32.6704 54.0702 30.917 54.7329 29.6909 54.7329C28.8317 54.7329 28.245 54.5479 27.9264 54.1803C27.6078 53.8126 27.4606 53.1499 27.4848 52.1923V40H23V53.5176C23 56.8574 24.6656 58.5284 28.0011 58.5284C30.4775 58.5284 32.9891 57.5575 35.538 55.6179L35.8676 58.0484H39.3965V40H34.9469H34.9491Z" fill="#F58220"/>
<path d="M55.4325 57.5951H60.5061L54.8809 49.271C54.3668 48.4366 53.8636 47.8598 53.3736 47.5406V47.468C53.9866 47.0761 54.4876 46.5719 54.8809 45.9577L59.9172 39.5489H54.8436L49.9172 45.9577H47.9681C48.1395 45 48.2252 43.9454 48.2252 42.7896V32.1891H43.7031V57.5974H48.1879V51.7412C48.1879 51.1776 48.1154 50.2551 47.9681 48.9782H49.9545L55.4325 57.5974V57.5951Z" fill="#F58220"/>
<path d="M76.8403 45.2927C76.8403 43.2057 76.1899 41.6403 74.8913 40.5968C73.5927 39.5533 71.5096 39.0315 68.6421 39.0315C65.5285 39.0315 63.2982 39.7382 61.9512 41.1494C60.6021 42.5628 59.9297 45.0242 59.9297 48.5357C59.9297 52.0472 60.6153 54.4182 61.9886 55.8669C63.3619 57.3155 65.6757 58.0398 68.9365 58.0398C72.1974 58.0398 74.6716 57.6347 76.3635 56.8245L75.9592 53.9515C73.4828 54.2465 71.3272 54.394 69.4881 54.394C67.8708 54.394 66.7063 54.1298 65.9965 53.6015C65.2846 53.0731 64.8429 52.0251 64.6737 50.451H72.026C75.2363 50.451 76.8425 48.7338 76.8425 45.295M72.3929 45.2223C72.3929 46.6225 71.8546 47.3226 70.7757 47.3226H64.599C64.6474 45.4557 64.9726 44.1986 65.5724 43.5469C66.1723 42.8974 67.2578 42.5716 68.8267 42.5716C70.1758 42.5716 71.1053 42.7676 71.6217 43.1616C72.1359 43.5535 72.3929 44.2426 72.3929 45.2245" fill="#F58220"/>
<path d="M68.809 5.52595C59.2001 5.12967 51.1601 10.4707 50.8832 17.4584C50.758 20.6287 51.7797 23.8254 54.489 26.377C58.0861 29.7608 61.6875 30.5511 61.6897 30.5511C61.7051 30.5511 61.7183 30.5644 61.7183 30.5798C61.7183 30.5864 61.7139 30.5908 61.7117 30.5974C61.7117 30.5974 61.7117 30.5996 61.7073 30.6018C61.3403 31.0773 56.6095 37.2615 56.6095 37.2615H59.255C61.5469 35.3484 67.5566 31.533 69.0441 31.489C79.6155 31.1742 85.0078 24.5233 85.2429 18.8939C85.5351 11.9083 78.4158 5.92223 68.809 5.52595ZM73.4498 26.5641C71.292 28.354 68.0751 29.0915 65.1329 28.8559C67.2929 24.8997 70.0725 20.774 70.0725 20.774H69.7121C68.8178 21.4433 65.2406 24.2349 62.0369 28.1955C61.1206 27.8542 60.301 27.3941 59.644 26.8151C55.5569 23.2023 56.2799 16.635 60.5207 13.1874C63.898 10.442 68.0619 10.5873 71.6436 10.5367C75.4208 10.4839 78.2048 9.535 78.2048 9.535C78.2048 9.535 80.6219 20.6155 73.4498 26.5641Z" fill="#00BCE7"/>
</svg>
