<svg width="38" height="28" viewBox="0 0 38 28" fill="none" xmlns="http://www.w3.org/2000/svg">
<path d="M16.672 19.448C16.672 24.024 13.552 27.248 8.976 27.248C4.088 27.248 0.552 23.296 0.552 17.056C0.552 8.32 6.376 1.56 14.696 0.519993V5.512C10.224 6.344 7.104 9.15199 7.104 12.792C7.936 12.48 8.872 12.272 10.016 12.272C13.76 12.272 16.672 14.976 16.672 19.448ZM37.264 19.448C37.264 24.024 34.144 27.248 29.568 27.248C24.68 27.248 21.144 23.296 21.144 17.056C21.144 8.32 26.968 1.56 35.288 0.519993V5.512C30.816 6.344 27.592 9.15199 27.592 12.896C28.424 12.48 29.36 12.272 30.504 12.272C34.248 12.272 37.264 14.976 37.264 19.448Z" fill="url(#paint0_linear_1825_2812)"/>
<defs>
<linearGradient id="paint0_linear_1825_2812" x1="18.5" y1="-25" x2="18.5" y2="29" gradientUnits="userSpaceOnUse">
<stop stop-color="#3CBB54"/>
<stop offset="1" stop-color="white"/>
</linearGradient>
</defs>
</svg>
