<svg id="zenodo" xmlns="http://www.w3.org/2000/svg" width="69.041" height="22.622" viewBox="0 0 69.041 22.622">
  <g id="Group_16041" data-name="Group 16041">
    <g id="Group_16040" data-name="Group 16040">
      <path id="Path_47473" data-name="Path 47473" d="M68.542,8.9A6.449,6.449,0,0,0,67.2,6.927a6.19,6.19,0,0,0-4.382-1.8,6.071,6.071,0,0,0-2.424.481,6.545,6.545,0,0,0-1.05.568,6.464,6.464,0,0,0-.928.755,5.945,5.945,0,0,0-.5.552,7.681,7.681,0,0,0-.468.679,7.731,7.731,0,0,0-.592,1.334,5.2,5.2,0,0,1,.592-2.581V1.306a1.229,1.229,0,0,0-.4-.927,1.3,1.3,0,0,0-2.217.927V6.291a6.818,6.818,0,0,0-1.7-.86,5.906,5.906,0,0,0-1.908-.309,6.112,6.112,0,0,0-2.406.481,6.216,6.216,0,0,0-1.979,1.323A6.408,6.408,0,0,0,45.507,8.9c-.025.057-.047.114-.071.172-.022-.058-.044-.115-.069-.172a6.448,6.448,0,0,0-1.343-1.977A6.193,6.193,0,0,0,42.05,5.6a6.3,6.3,0,0,0-4.831,0,6.413,6.413,0,0,0-1.977,1.323A6.059,6.059,0,0,0,33.9,8.9c-.023.054-.043.108-.065.162-.022-.054-.043-.108-.067-.162a6.407,6.407,0,0,0-1.34-1.977A6.2,6.2,0,0,0,30.452,5.6a6.3,6.3,0,0,0-4.831,0,6.419,6.419,0,0,0-1.975,1.323A6.038,6.038,0,0,0,22.3,8.9c-.02.05-.039.1-.059.151-.02-.05-.04-.1-.062-.151a6.451,6.451,0,0,0-1.343-1.977,6.181,6.181,0,0,0-4.381-1.8,6.06,6.06,0,0,0-2.423.481,6.389,6.389,0,0,0-1.844,1.2V6.6a1.331,1.331,0,0,0-1.33-1.331H1.531a1.331,1.331,0,0,0,0,2.661H8.862L.263,19.509A1.33,1.33,0,0,0,0,20.3v.868A1.332,1.332,0,0,0,1.331,22.5H11.26a1.331,1.331,0,0,0,1.326-1.233,6.263,6.263,0,0,0,1.467.872,6.062,6.062,0,0,0,2.407.482A5.943,5.943,0,0,0,19.9,21.59a6.165,6.165,0,0,0,1.927-2.07v1.795a1.3,1.3,0,0,0,1.308,1.307,1.275,1.275,0,0,0,.91-.379,1.228,1.228,0,0,0,.4-.928v-4.66h0l0-.006H21.176a1.267,1.267,0,0,0-.739.223,1.2,1.2,0,0,0-.463.6l-.214.439a3.579,3.579,0,0,1-3.3,2.1,3.648,3.648,0,0,1-1.394-.273,3.377,3.377,0,0,1-1.151-.774,3.976,3.976,0,0,1-.774-1.152,3.351,3.351,0,0,1-.291-1.376V15.266H24.437V11.31a3.488,3.488,0,0,1,.275-1.374,3.575,3.575,0,0,1,3.334-2.2,3.639,3.639,0,0,1,1.394.274,3.376,3.376,0,0,1,1.151.774,4,4,0,0,1,.774,1.153,3.336,3.336,0,0,1,.293,1.374v10a1.29,1.29,0,0,0,1.307,1.307,1.281,1.281,0,0,0,.912-.379,1.24,1.24,0,0,0,.393-.928V19.52a6.317,6.317,0,0,0,.991,1.3,6.167,6.167,0,0,0,1.977,1.323,6.254,6.254,0,0,0,4.813,0,6.4,6.4,0,0,0,1.994-1.323,6.077,6.077,0,0,0,1.341-1.976c.017-.045.035-.09.051-.135.018.045.035.09.053.135a6.013,6.013,0,0,0,1.341,1.976,6.415,6.415,0,0,0,1.976,1.323,6.3,6.3,0,0,0,4.832,0,6.176,6.176,0,0,0,1.974-1.323,6.452,6.452,0,0,0,1.343-1.976c.024-.057.046-.113.069-.17.023.057.044.113.069.17a6.413,6.413,0,0,0,1.341,1.976,6.167,6.167,0,0,0,1.977,1.323,6.254,6.254,0,0,0,4.813,0,6.389,6.389,0,0,0,1.994-1.323,6.112,6.112,0,0,0,1.822-4.384V11.311A5.983,5.983,0,0,0,68.542,8.9ZM3.332,19.841l6.962-9.375a6.407,6.407,0,0,0-.057.845v5.123a5.89,5.89,0,0,0,.5,2.408,6.59,6.59,0,0,0,.545,1H3.332ZM20.068,12.65H12.85V11.31a3.487,3.487,0,0,1,.274-1.374,3.572,3.572,0,0,1,3.337-2.2,3.633,3.633,0,0,1,1.391.274A3.361,3.361,0,0,1,19,8.784a4,4,0,0,1,.774,1.153,3.32,3.32,0,0,1,.291,1.374v1.34Zm23.184,3.783a3.47,3.47,0,0,1-.275,1.376,3.568,3.568,0,0,1-3.333,2.2,3.648,3.648,0,0,1-1.394-.273,3.359,3.359,0,0,1-1.151-.774,3.957,3.957,0,0,1-.774-1.152,3.334,3.334,0,0,1-.291-1.376V11.311a3.488,3.488,0,0,1,.275-1.374,3.566,3.566,0,0,1,.773-1.153,3.658,3.658,0,0,1,3.952-.774,3.365,3.365,0,0,1,1.152.774,4.042,4.042,0,0,1,.774,1.153,3.335,3.335,0,0,1,.291,1.374v5.123Zm11.587,0a3.32,3.32,0,0,1-.291,1.376,3.97,3.97,0,0,1-.774,1.152,3.336,3.336,0,0,1-1.152.774,3.726,3.726,0,0,1-2.8,0A3.61,3.61,0,0,1,47.9,17.809a3.486,3.486,0,0,1-.275-1.376V11.311a3.368,3.368,0,0,1,.292-1.374,4.029,4.029,0,0,1,.774-1.153,3.4,3.4,0,0,1,1.151-.774,3.652,3.652,0,0,1,1.394-.274,3.586,3.586,0,0,1,3.335,2.2,3.5,3.5,0,0,1,.274,1.374v5.123Zm11.587,0a3.52,3.52,0,0,1-.274,1.376,3.643,3.643,0,0,1-4.729,1.926,3.362,3.362,0,0,1-1.15-.774,3.969,3.969,0,0,1-.775-1.152,3.327,3.327,0,0,1-.292-1.376V11.311a3.489,3.489,0,0,1,.275-1.374,3.566,3.566,0,0,1,.773-1.153,3.659,3.659,0,0,1,3.953-.774,3.361,3.361,0,0,1,1.151.774,4.026,4.026,0,0,1,.775,1.153,3.335,3.335,0,0,1,.291,1.374v5.123Z" fill="#fff"/>
    </g>
  </g>
</svg>
